<?xml version="1.0" standalone="no"?>
<!DOCTYPE svg PUBLIC "-//W3C//DTD SVG 1.1//EN" "http://www.w3.org/Graphics/SVG/1.1/DTD/svg11.dtd" >
<svg xmlns="http://www.w3.org/2000/svg">
<metadata></metadata>
<defs>
<font id="downtemporegular" horiz-adv-x="1058" >
<font-face units-per-em="2048" ascent="1638" descent="-410" />
<missing-glyph horiz-adv-x="368" />
<glyph horiz-adv-x="0" />
<glyph unicode="&#xd;" horiz-adv-x="1597" />
<glyph unicode=" "  horiz-adv-x="368" />
<glyph unicode="&#x09;" horiz-adv-x="368" />
<glyph unicode="&#xa0;" horiz-adv-x="368" />
<glyph unicode="!" horiz-adv-x="479" d="M135 1319h328l-64 -934h-200zM158 2v289h284v-289h-284z" />
<glyph unicode="&#x22;" horiz-adv-x="772" d="M158 786v566h264v-566h-264zM469 786v566h262v-566h-262z" />
<glyph unicode="#" horiz-adv-x="1087" d="M18 432v234h189l14 77h-203v232h250l90 467h260l-92 -467h109l92 467h260l-92 -467h162v-232h-207l-14 -77h221v-234h-269l-83 -432h-261l86 432h-108l-86 -432h-258l84 432h-144zM467 666h108l15 77h-109z" />
<glyph unicode="$" horiz-adv-x="1034" d="M98 977q0 88 33 149.5t83 101.5t108.5 61.5t109.5 31.5v182h230v-182q70 -10 139 -32.5t153 -53.5l-47 -193q-82 16 -140 29.5t-105 20.5v-318q61 -23 120.5 -51.5t107.5 -72.5t77.5 -105.5t29.5 -149.5q0 -145 -85 -255.5t-250 -143.5v-176h-230v168q-33 2 -62.5 5 t-63.5 11t-72.5 19.5t-88.5 29.5l-24 230q115 -37 186.5 -49.5t124.5 -14.5v354q-68 25 -129 60t-106 82t-72 111.5t-27 150.5zM365 977q0 -63 67 -109v201q-35 -18 -51 -43t-16 -49zM662 258q33 25 48 60.5t15 76.5q0 53 -63 90v-227z" />
<glyph unicode="%" horiz-adv-x="1716" d="M88 729v371q0 57 9 103t34 79t68 51.5t110 18.5h152q68 0 110.5 -18.5t67.5 -51.5t34 -79t9 -103v-371q0 -57 -9 -103t-34 -79t-68 -51.5t-110 -18.5h-152q-68 0 -110.5 18.5t-67.5 51.5t-34 79t-9 103zM297 733q0 -39 8 -51t53 -12h54q45 0 53 12t8 51v363q0 37 -8 50 t-53 13h-54q-45 0 -53 -13t-8 -50v-363zM408 0l669 1442h266l-669 -1442h-266zM1042 254v371q0 57 9.5 103t34 79t67.5 51.5t111 18.5h149q68 0 111 -18.5t67.5 -51.5t33.5 -79t9 -103v-371q0 -57 -9 -103.5t-33.5 -79t-67.5 -51t-111 -18.5h-149q-68 0 -111 18.5t-67.5 51 t-34 79t-9.5 103.5zM1251 258q0 -39 7.5 -51t54.5 -12h53q45 0 53 12t8 51v363q0 37 -8 50t-53 13h-53q-47 0 -54.5 -13.5t-7.5 -49.5v-363z" />
<glyph unicode="&#x26;" horiz-adv-x="1443" d="M125 352v70q0 70 15.5 135.5t46 117.5t78.5 88t114 50l-17 23q-35 47 -70.5 99t-35.5 107q0 59 21.5 111.5t63.5 92.5t101.5 62.5t135.5 22.5h170q123 0 201.5 -46t125.5 -163l-225 -82q-16 37 -39 48.5t-59 11.5h-142q-59 0 -76.5 -14.5t-17.5 -43.5q0 -6 10.5 -25.5 t22.5 -40t23 -36.5l12 -16l493 -641l326 51l78 -187l-262 -47l77 -102h-286l-45 57q-82 -12 -163 -25.5t-148.5 -22.5t-117 -15t-67.5 -6q-188 0 -266 94t-78 272zM381 360q0 -43 3 -70.5t16.5 -44t41 -22.5t78.5 -6q18 0 101.5 9.5t193.5 21.5l-262 340q-12 2 -21.5 2 h-13.5q-84 0 -110.5 -35t-26.5 -106v-89z" />
<glyph unicode="'" horiz-adv-x="489" d="M158 786v566h264v-566h-264z" />
<glyph unicode="(" horiz-adv-x="593" d="M139 473v391q0 92 25.5 202t70 217.5t104.5 204.5t130 169h246q-82 -82 -140.5 -189.5t-96.5 -219t-55 -219t-17 -191.5v-344q0 -84 18 -190.5t56 -217.5t96.5 -216.5t138.5 -186.5h-246q-70 70 -130 167t-104.5 204.5t-70 217t-25.5 201.5z" />
<glyph unicode=")" horiz-adv-x="593" d="M-35 -317q80 82 138.5 187t96.5 216t55 216.5t17 189.5v346q0 84 -17 191.5t-55 219t-96.5 219t-138.5 189.5h246q70 -72 130 -169t104 -204.5t69 -217.5t25 -202v-391q0 -92 -25 -201.5t-69 -217t-104 -205t-130 -166.5h-246z" />
<glyph unicode="*" horiz-adv-x="933" d="M143 1012l78 182l191 -98l-29 190h229l-26 -190l188 98l82 -182l-225 -74l186 -125l-121 -166l-190 172l-205 -174l-125 168l186 125z" />
<glyph unicode="+" horiz-adv-x="1161" d="M88 592v233h404v402h231v-402h403v-233h-403v-402h-231v402h-404z" />
<glyph unicode="," horiz-adv-x="509" d="M147 -199l54 201h-43v289h284v-256l-127 -291z" />
<glyph unicode="-" horiz-adv-x="905" d="M88 440v234h797v-234h-797z" />
<glyph unicode="." horiz-adv-x="509" d="M158 2v289h284v-289h-284z" />
<glyph unicode="/" horiz-adv-x="860" d="M-2 0l670 1442h266l-670 -1442h-266z" />
<glyph unicode="0" horiz-adv-x="1097" d="M139 350v598q0 88 13.5 155.5t49.5 115t97 72t158 24.5h241q96 0 158 -24.5t96.5 -72t48 -115t13.5 -155.5v-598q0 -86 -13.5 -154.5t-48 -115.5t-96 -71.5t-158.5 -24.5h-241q-96 0 -157.5 24.5t-97.5 71.5t-49.5 115.5t-13.5 154.5zM397 358q0 -43 2 -70.5t15.5 -44 t41 -22.5t79.5 -6h86q51 0 78.5 6t41 22.5t15.5 44t2 70.5v582q0 43 -2 70.5t-15.5 44t-41 22.5t-78.5 6h-86q-51 0 -79 -6t-41.5 -22.5t-15.5 -44t-2 -70.5v-582z" />
<glyph unicode="1" horiz-adv-x="677" d="M-16 979l387 340h233v-1317h-258v995l-125 -108z" />
<glyph unicode="2" horiz-adv-x="1026" d="M78 1112q29 76 82 117t106 61q61 23 127 27h248q104 0 165.5 -35t94.5 -83t43 -95t10 -72q0 -53 -14 -99t-31 -81q-20 -41 -45 -76l-428 -547h561v-231h-909v207l500 620q59 74 84.5 122t25.5 77q0 41 -36.5 51t-90.5 10h-139q-37 0 -61.5 -10t-40.5 -20q-18 -14 -31 -31 z" />
<glyph unicode="3" horiz-adv-x="1042" d="M76 1106q47 117 126 163t201 46h215q182 0 263.5 -92t81.5 -258q0 -66 -10.5 -112t-22.5 -75q-14 -35 -31 -57q41 -59 51.5 -130t10.5 -183q0 -115 -18.5 -196t-58.5 -132t-106.5 -73.5t-161.5 -22.5q-35 0 -97 6t-134 15t-144.5 21.5t-129.5 24.5l12 211 q59 -8 126.5 -16t131 -15.5t114 -11.5t72.5 -4q49 0 77 6t41 22.5t16.5 44t3.5 70.5v95q0 43 -3.5 73.5t-14.5 49t-34.5 26.5t-62.5 8h-361v230h365q37 0 59.5 6t33.5 20.5t14.5 38t3.5 58.5t-3.5 58t-16.5 37.5t-41 20.5t-77 6h-145q-41 0 -64.5 -10t-35.5 -20 q-14 -14 -21 -31z" />
<glyph unicode="4" horiz-adv-x="993" d="M18 272v203l504 844h334v-815h113v-234h-113v-268h-260v270h-578zM317 504h279v469z" />
<glyph unicode="5" horiz-adv-x="1009" d="M88 664v651h832v-217h-584v-258q63 10 134 24.5t134 14.5q88 0 153.5 -11.5t108.5 -44t62.5 -92t19.5 -153.5l-2 -228q0 -90 -18.5 -157.5t-58.5 -114.5t-105.5 -70.5t-159.5 -23.5q-35 0 -97.5 6t-134 15t-144 21.5t-130.5 24.5l13 211q59 -8 126.5 -16t131 -15.5 t112.5 -11.5t72 -4q51 0 78.5 6t41 22.5t15.5 44t2 70.5v211q0 53 -29.5 66.5t-58.5 15.5q-68 -4 -103.5 -9t-61 -10t-56.5 -10.5t-90 -11.5z" />
<glyph unicode="6" horiz-adv-x="1099" d="M158 250v751q0 63 23.5 121t67.5 101t107.5 67.5t145.5 24.5h215q123 0 201.5 -46t125.5 -163l-225 -82q-16 39 -38.5 49t-59.5 10h-168q-47 0 -74.5 -5t-42 -16t-17.5 -28.5t-3 -42.5v-190q66 10 136.5 24.5t133.5 14.5q90 0 154.5 -11.5t106.5 -44t62.5 -91 t20.5 -152.5v-297q0 -131 -94 -195.5t-250 -64.5q-35 0 -83 2t-103.5 7t-111.5 15t-107 27q-45 14 -69 49t-36 72q-14 43 -18 94zM416 266q0 -4 2 -17t12 -16q43 -6 72.5 -10t52.5 -6t41 -2h41q51 0 78.5 6t41 22.5t15.5 44t2 70.5v174q0 25 -8 40.5t-21.5 24.5t-30 12 t-30.5 3q-61 -4 -94 -8t-56.5 -8t-48 -8t-69.5 -10v-312z" />
<glyph unicode="7" horiz-adv-x="813" d="M18 1081v238h867l-518 -1323h-273l424 1085h-500z" />
<glyph unicode="8" horiz-adv-x="1126" d="M139 367v32q0 78 14.5 143.5t49.5 114.5q-35 49 -49.5 116t-14.5 145v30q0 180 78 273.5t266 93.5h215q188 0 265 -93.5t77 -273.5v-30q0 -78 -14 -144.5t-49 -116.5q35 -49 49 -114.5t14 -143.5v-32q0 -90 -17 -161t-58 -120t-106.5 -75.5t-160.5 -26.5h-215 q-190 0 -267 102t-77 281zM397 375q0 -45 3 -75t16.5 -48.5t41 -26.5t77.5 -8h112q49 0 77 8t41 26.5t16 48.5t3 75v16q0 43 -2 70.5t-15 45t-41 24t-79 6.5h-112q-51 0 -79 -6.5t-41.5 -24t-15.5 -45t-2 -70.5v-16zM397 928q0 -43 3 -74t16.5 -49.5t41 -26.5t77.5 -8h112 q49 0 77 8t41 26.5t16 48.5t3 73v14q0 43 -2 70.5t-15 44t-41 22.5t-79 6h-112q-51 0 -79 -6t-41.5 -22.5t-15.5 -44t-2 -70.5v-12z" />
<glyph unicode="9" horiz-adv-x="1112" d="M123 80v211q80 -10 153.5 -23.5t141.5 -23.5q72 -12 125 -20.5t73 -8.5q43 0 69 5t40 14.5t19.5 23.5t7.5 33v115q-80 -10 -155 -18.5t-116 -8.5q-90 0 -154.5 11t-106.5 44t-62.5 92.5t-20.5 153.5v276q0 176 77 267.5t265 91.5h215q121 0 203 -44t113 -165v-807 q0 -315 -342 -315q-37 0 -104.5 10t-141.5 26q-74 14 -150.5 30t-148.5 30zM393 647q4 -25 25.5 -32t50.5 -7q33 0 62.5 1t60.5 4t68.5 7.5t91.5 10.5v432q-4 8 -21.5 14t-87.5 6h-113q-51 0 -78.5 -6t-41 -22.5t-15.5 -44t-2 -70.5v-293z" />
<glyph unicode=":" horiz-adv-x="509" d="M158 0v291h284v-291h-284zM158 664v290h284v-290h-284z" />
<glyph unicode=";" horiz-adv-x="509" d="M147 -201l54 201h-43v291h284v-256l-127 -291zM158 664v290h284v-290h-284z" />
<glyph unicode="&#x3c;" horiz-adv-x="743" d="M18 553v174l713 438v-276l-416 -250l416 -252v-278z" />
<glyph unicode="=" horiz-adv-x="1161" d="M88 432v234h1038v-234h-1038zM88 741v234h1038v-234h-1038z" />
<glyph unicode="&#x3e;" horiz-adv-x="743" d="M88 109v278l418 252l-418 250v276l713 -438v-174z" />
<glyph unicode="?" horiz-adv-x="913" d="M76 1219q47 117 126 162.5t201 45.5h215q106 0 173 -27.5t105 -78.5t51.5 -122t13.5 -157q0 -150 -39 -231.5t-94.5 -119.5t-114 -44t-97.5 -6q-23 0 -59.5 3t-81.5 7l111 -272h-287l-186 352v189q59 -8 128.5 -16.5t134 -15.5t117 -11.5t74.5 -4.5q61 0 88 10.5t37 30.5 q8 16 10.5 43t2.5 54v84q0 31 -5.5 50t-19.5 30.5t-41 16.5t-72 5h-145q-39 0 -71 -7t-50 -52zM283 0v291h282v-291h-282z" />
<glyph unicode="@" horiz-adv-x="1929" d="M139 569q0 156 53.5 306.5t158 269.5t261 190.5t365.5 71.5q150 0 297 -45t265 -133t190.5 -221.5t72.5 -307.5q0 -90 -24.5 -168.5t-66.5 -144t-98.5 -118t-119.5 -87.5q-31 -18 -66.5 -27.5t-79.5 -14.5t-98.5 -6t-124.5 -1l-26 35q-74 -16 -149 -32.5t-150 -16.5 q-143 0 -206 59.5t-63 169.5q0 51 13 113l47 241q31 160 116 243t255 83q31 0 64.5 -9t69 -22.5t69.5 -28t65 -22.5l47 72h98q20 -10 39 -27q14 -14 26.5 -33.5t12.5 -46.5l-111 -555q41 14 78 45t65.5 75t46 102.5t17.5 128.5q0 84 -18.5 159.5t-77.5 141.5 q-76 80 -200 127t-275 47q-145 0 -255 -52.5t-182.5 -138.5t-109.5 -195.5t-37 -226.5q0 -115 39 -225.5t115 -196.5t183.5 -138t246.5 -52q92 0 169 8t150.5 29.5t149.5 58.5t162 97v-234q-141 -90 -291 -137t-340 -47q-211 0 -368.5 72.5t-262 190.5t-156 268.5 t-51.5 305.5zM772 385q0 -29 20.5 -39t77.5 -10q55 0 117 10t117 21l74 383q-29 8 -56.5 17t-52.5 17q-16 6 -45 17.5t-45 11.5q-47 0 -72.5 -6t-41 -21.5t-22.5 -41t-16 -64.5l-45 -227q-10 -47 -10 -68z" />
<glyph unicode="A" horiz-adv-x="1183" d="M2 0l506 1317h258l508 -1317h-299l-135 375h-410l-129 -375h-299zM512 606h246l-125 350z" />
<glyph unicode="B" horiz-adv-x="1241" d="M160 0v1315h223l35 -41q78 16 155.5 34.5t155.5 18.5q84 0 152.5 -28.5t117 -78t75 -115t26.5 -138.5q0 -72 -16.5 -122t-32.5 -79q27 -16 54.5 -41t49 -56.5t34.5 -69.5t13 -79v-215q0 -61 -18.5 -116.5t-60.5 -97.5t-107.5 -66.5t-157.5 -24.5h-698zM446 231h398 q4 2 16 7.5t25.5 17.5t24 32.5t10.5 53.5v158q0 43 -28 66.5t-75 23.5h-371v-359zM446 821h250q61 0 96 38t35 104t-30.5 94t-69.5 37q-10 4 -22.5 4h-22.5q-37 0 -70 -6l-166 -29v-242z" />
<glyph unicode="C" horiz-adv-x="1069" d="M139 350v600q0 178 78 272.5t266 94.5h240q123 0 202 -46t126 -163l-224 -82q-18 37 -40.5 48t-59.5 11h-166q-47 0 -73.5 -5t-41 -18t-18.5 -34.5t-4 -54.5v-615q0 -43 2 -70.5t15.5 -44t41 -22.5t78.5 -6q23 0 75 4t117.5 11.5t135 15.5t129.5 16l12 -211 q-59 -12 -138 -24.5t-159 -21.5t-147.5 -15t-102.5 -6q-188 0 -266 94t-78 272z" />
<glyph unicode="D" horiz-adv-x="1282" d="M158 0v1317h225l37 -45q47 8 107.5 19.5t120 19.5t112.5 14t86 6q188 0 266 -94t78 -272v-598q0 -180 -78 -273.5t-266 -93.5h-688zM442 229h326q51 0 78.5 6.5t41 22.5t16.5 44t3 71v583q0 43 -3 71t-16.5 44t-41 22.5t-78.5 6.5q-18 0 -50 -4t-72 -9.5t-84 -11.5 t-85 -10l-35 -4v-832z" />
<glyph unicode="E" horiz-adv-x="1015" d="M158 0v1317h831v-230h-547v-270h465v-229h-465v-357h547v-231h-831z" />
<glyph unicode="F" horiz-adv-x="1015" d="M158 0v1317h831v-230h-547v-270h465v-229h-465v-588h-284z" />
<glyph unicode="G" horiz-adv-x="1208" d="M139 350v600q0 178 78 272.5t266 94.5h242q123 0 202 -46t126 -163l-226 -82q-16 37 -38.5 48t-59.5 11h-168q-51 0 -78.5 -6t-41 -22.5t-15.5 -44t-2 -70.5v-584q0 -43 2 -70.5t15.5 -44t42 -22.5t79.5 -6q27 0 64 5t76.5 12.5t78.5 14.5t70 11v270h-205v230h463v-760 h-197l-36 43q-47 -10 -103.5 -19.5t-111 -18.5t-101.5 -14t-76 -5q-188 0 -267 94t-79 272z" />
<glyph unicode="H" horiz-adv-x="1368" d="M158 0v1317h284v-500h527v500h282v-1317h-282v588h-527v-588h-284z" />
<glyph unicode="I" horiz-adv-x="509" d="M158 0v1317h284v-1317h-284z" />
<glyph unicode="J" horiz-adv-x="946" d="M18 66l11 210q55 -6 112.5 -16t111.5 -20.5t101 -17.5t78 -7q51 0 79 6t41 22.5t16 44t3 70.5v957h283v-965q0 -178 -78 -272t-266 -94q-35 0 -95.5 8t-130 20.5t-140 26.5t-126.5 27z" />
<glyph unicode="K" horiz-adv-x="1220" d="M158 0v1317h284v-461l488 461h325l-557 -549l594 -768h-301l-463 598l-86 -86v-512h-284z" />
<glyph unicode="L" horiz-adv-x="942" d="M158 0v1317h284v-1086h547v-231h-831z" />
<glyph unicode="M" horiz-adv-x="1677" d="M150 0v1317h268l434 -893l424 893h268v-1317h-282v705l-289 -574h-250l-291 576v-707h-282z" />
<glyph unicode="N" horiz-adv-x="1347" d="M150 0v1317h225l583 -852v852h285v-1317h-262l-549 805v-805h-282z" />
<glyph unicode="O" horiz-adv-x="1234" d="M139 367v596q0 178 78 272t266 94h320q188 0 266 -94t78 -272v-596q0 -178 -78 -272.5t-266 -94.5h-320q-188 0 -266 94t-78 273zM422 375q0 -43 3 -71t16.5 -44t41 -22.5t78.5 -6.5h164q51 0 78.5 6.5t41 22.5t15.5 44t2 71v579q0 43 -2 71t-15.5 44t-41 22.5t-78.5 6.5 h-164q-51 0 -78.5 -6.5t-41 -22.5t-16.5 -44t-3 -71v-579z" />
<glyph unicode="P" horiz-adv-x="1198" d="M160 0v1315h223l35 -41q84 16 168 34.5t170 18.5q371 0 370 -366v-222q0 -366 -368 -366h-2q-59 0 -144.5 9t-169.5 26v-408h-282zM444 625q76 -10 150 -15.5t111 -5.5q51 0 78.5 6t41 22.5t15.5 44.5t2 71v204q0 43 -2 71t-15.5 44t-41 22.5t-78.5 6.5q-59 0 -130 -12.5 t-131 -22.5v-436z" />
<glyph unicode="Q" horiz-adv-x="1236" d="M139 367v596q0 178 78 272t266 94h320q188 0 266 -94t78 -272v-596q0 -176 -76 -270.5t-260 -96.5q14 -6 37.5 -20.5t60.5 -14.5q31 0 61.5 7.5t59.5 13.5q41 10 92.5 26.5t126.5 16.5v-213q-70 0 -119 -8.5t-96 -20.5q-43 -10 -87 -21.5t-89 -11.5q-150 0 -229.5 61.5 t-102.5 184.5h-43q-188 0 -266 94t-78 273zM424 375q0 -43 2 -71t15.5 -44t41 -22.5t78.5 -6.5h164q51 0 78.5 6.5t41 22.5t16.5 44t3 71v579q0 43 -3 71t-16.5 44t-41 22.5t-78.5 6.5h-164q-51 0 -78.5 -6.5t-41 -22.5t-15.5 -44t-2 -71v-579z" />
<glyph unicode="R" horiz-adv-x="1220" d="M160 0v1315h223l35 -41q84 18 168 36.5t170 18.5q371 0 370 -366v-185q0 -123 -42 -207t-134 -125l344 -446h-301l-319 416q-53 4 -112.5 13t-119.5 20v-449h-282zM444 664q76 -10 150 -15.5t111 -5.5q51 0 78.5 6t41 22.5t15.5 44t2 70.5v168q0 43 -2 71t-15.5 44 t-41 22.5t-78.5 6.5q-59 0 -130 -12.5t-131 -22.5v-399z" />
<glyph unicode="S" horiz-adv-x="1034" d="M98 977q0 115 52.5 184.5t124 107.5t146.5 50t120 12q57 0 106 -7t98.5 -19.5t99.5 -31t109 -38.5l-47 -193q-80 16 -161.5 36t-165.5 20q-111 0 -163 -39t-52 -82q0 -57 50 -95t154 -75q76 -27 153 -56.5t138.5 -75.5t99 -113t37.5 -167q0 -84 -29.5 -158.5t-87 -130 t-143.5 -88t-196 -32.5q-55 0 -99.5 2t-88.5 8t-93 19.5t-115 37.5l-24 230q29 -10 70.5 -21.5t90 -22t100.5 -17.5t101 -7t93.5 8t77 29.5t52 55.5t19.5 87q0 55 -73.5 92t-227.5 91q-59 20 -117.5 53t-104.5 80t-75 112.5t-29 153.5z" />
<glyph unicode="T" horiz-adv-x="940" d="M18 1087v230h969v-230h-342v-1087h-283v1087h-344z" />
<glyph unicode="U" horiz-adv-x="1247" d="M139 350v967h285v-959q0 -43 2 -70.5t15.5 -44t41 -22.5t78.5 -6q27 0 66 5t82 12.5t84 14.5t71 11v1059h283v-1319h-223l-37 43q-47 -10 -105.5 -19.5t-115 -18.5t-105.5 -14t-78 -5q-188 0 -266 94t-78 272z" />
<glyph unicode="V" horiz-adv-x="1204" d="M2 1317h299l342 -957l332 957h299l-508 -1317h-256z" />
<glyph unicode="W" horiz-adv-x="2000" d="M4 1317h297l291 -946l278 854h271l286 -852l281 944h297l-451 -1317h-258l-290 819l-291 -819h-258z" />
<glyph unicode="X" horiz-adv-x="1073" d="M-14 0l432 668l-430 649h309l270 -420l271 420h309l-432 -649l432 -668h-311l-269 436l-270 -436h-311z" />
<glyph unicode="Y" horiz-adv-x="1224" d="M-8 1317h303l344 -604l340 604h305l-502 -893v-424h-290v424z" />
<glyph unicode="Z" horiz-adv-x="1228" d="M88 1083v232h1075v-205l-704 -881h731v-229h-1077v205l714 878h-739z" />
<glyph unicode="[" horiz-adv-x="684" d="M162 -301v1954h583v-234h-325v-1489h325v-231h-583z" />
<glyph unicode="\" horiz-adv-x="860" d="M-2 1440h266l670 -1442h-266z" />
<glyph unicode="]" horiz-adv-x="684" d="M18 -70h326v1489h-326v234h584v-1954h-584v231z" />
<glyph unicode="^" d="M154 1040l432 398l430 -398l-234 -39l-196 127l-199 -127z" />
<glyph unicode="_" horiz-adv-x="1161" d="M88 -2h1038v-215h-1038v215z" />
<glyph unicode="`" horiz-adv-x="1126" d="M170 1278l324 76l342 -314l-234 -39z" />
<glyph unicode="a" d="M111 291q0 127 81.5 212t256.5 101l303 27v33q0 18 -3.5 34.5t-17.5 28.5t-41.5 19.5t-77.5 7.5q-23 0 -71.5 -4.5t-112 -11.5t-131.5 -15t-127 -16l-12 211q57 12 129.5 24t144.5 21.5t134.5 15.5t97.5 6q188 0 266 -93t78 -274v-618h-183l-28 55q-53 -37 -120 -54 t-110 -17h-116q-72 0 -134.5 19.5t-108.5 58t-71.5 96t-25.5 133.5zM367 293q2 -18 7 -33.5t18.5 -25t40 -14.5t69.5 -5h53q109 0 152 46t45 145l-252 -25q-47 -4 -73 -12.5t-38 -18.5t-16 -24.5t-6 -32.5z" />
<glyph unicode="b" horiz-adv-x="1126" d="M156 49v1301h258v-412q74 16 147.5 32.5t151.5 16.5q188 0 266 -94t78 -272v-271q0 -178 -78 -272t-266 -94q-35 0 -104.5 5t-151.5 14t-163 21.5t-138 24.5zM414 238q74 -10 141.5 -16.5t106.5 -6.5q51 0 78.5 6t41 22.5t15.5 44t2 70.5v254q0 43 -2 71t-15.5 44 t-41 22.5t-78.5 6.5q-59 0 -124 -12.5t-124 -22.5v-483z" />
<glyph unicode="c" horiz-adv-x="1038" d="M125 350v273q0 180 79 271t265 91h213q123 0 202 -46t126 -163l-224 -82q-16 37 -38.5 48.5t-61.5 11.5h-166q-43 0 -70.5 -4.5t-43 -17.5t-20.5 -37.5t-5 -67.5v-269q0 -45 4 -73.5t17.5 -44t41 -20.5t76.5 -5q113 0 222.5 19.5t222.5 27.5l12 -211 q-53 -10 -118.5 -22.5t-135.5 -22.5t-136.5 -16t-117.5 -6q-186 0 -265 93t-79 273z" />
<glyph unicode="d" horiz-adv-x="1126" d="M125 350v271q0 178 78 272t266 94q78 0 151.5 -16.5t147.5 -32.5v412h258v-1350h-195l-36 39q-80 -18 -161 -36.5t-165 -18.5q-188 0 -266 94t-78 272zM383 358q0 -43 2 -70.5t15.5 -44t41 -22.5t78.5 -6q59 0 124 12.5t124 22.5v471q-59 10 -123.5 22.5t-124.5 12.5 q-51 0 -78.5 -6.5t-41 -22.5t-15.5 -44t-2 -71v-254z" />
<glyph unicode="e" horiz-adv-x="1075" d="M125 350v268q0 180 78 273.5t266 93.5h215q74 0 136.5 -19.5t108.5 -57.5t71.5 -96t25.5 -136q0 -74 -25.5 -129t-71.5 -94t-108.5 -60.5t-134.5 -25.5q-111 -8 -186.5 -12.5t-114.5 -6.5q0 -39 3 -64.5t16.5 -41t41 -21.5t76.5 -6q23 0 72 4t112.5 11.5t131 15.5 t127.5 16l12 -211q-57 -12 -130 -24.5t-144.5 -21.5t-134 -15t-97.5 -6q-188 0 -267 94t-79 272zM385 571l244 27q49 6 77.5 12t42 15.5t16.5 22t3 28.5q0 18 -4 32.5t-17.5 24.5t-41 15.5t-72.5 5.5h-113q-51 0 -78.5 -6.5t-40 -22.5t-14.5 -44t-2 -71v-39z" />
<glyph unicode="f" horiz-adv-x="798" d="M18 758v217h195l-2 33q-1 19 -1 37q0 153 75 234q84 91 270 91q35 0 64.5 -2t62.5 -6t74 -12.5t98 -20.5l-12 -211q-59 8 -94 12.5t-59.5 6.5t-42 2h-40.5q-49 0 -76.5 -6.5t-40 -21.5t-15.5 -39.5t-3 -61.5v-35h266v-217h-266v-758h-258v758h-195z" />
<glyph unicode="g" horiz-adv-x="1060" d="M104 -111q57 -4 126 -15t139.5 -24.5t135 -23.5t113.5 -10q45 0 72 5t41 14t17.5 23.5t3.5 30.5v144q-29 -6 -70 -14.5t-84 -16.5t-82 -13t-63 -5q-188 0 -266 94t-78 272v271q0 178 77.5 272t266.5 94q84 0 163.5 -18.5t159.5 -36.5l37 41h197v-1075q0 -313 -340 -314 q-37 0 -107.5 10.5t-153.5 25.5t-165 31.5t-140 29.5v208zM367 358q0 -43 2 -70.5t15 -44t41 -22.5t79 -6q59 0 123.5 12.5t124.5 22.5v471q-59 10 -124 22.5t-124 12.5q-51 0 -79 -6.5t-41 -22.5t-15 -44t-2 -71v-254z" />
<glyph unicode="h" horiz-adv-x="1148" d="M162 0v1350h258v-412q74 16 148.5 32.5t150.5 16.5q188 0 266 -94t78 -272v-621h-258v612q0 43 -2 71t-15.5 44t-41 22.5t-78.5 6.5q-59 0 -124 -12.5t-124 -22.5v-721h-258z" />
<glyph unicode="i" horiz-adv-x="485" d="M162 -2v977h258v-977h-258zM162 1102v248h258l-2 -248h-256z" />
<glyph unicode="j" horiz-adv-x="512" d="M-137 -381l8 219q78 -12 119 -17t63 -5q45 0 73 5t41 14t17 22.5t4 29.5v1086h258v-1086q0 -154 -88 -228.5t-254 -74.5q-43 0 -101 9.5t-140 25.5zM188 1106v248h258v-248h-258z" />
<glyph unicode="k" horiz-adv-x="1110" d="M160 -2v1350h258v-373h301q68 0 130 -17.5t108.5 -54.5t74 -95t27.5 -138q0 -66 -19.5 -114t-47 -80t-59.5 -52.5t-59 -30.5l211 -395h-264l-184 344l-219 -33v-311h-258zM418 535l241 51q47 10 75 17t42.5 15.5t19.5 20t7 27.5q-2 18 -7 33.5t-19.5 24.5t-40 14t-68.5 5 h-250v-208z" />
<glyph unicode="l" horiz-adv-x="483" d="M162 -2v1352h258v-1352h-258z" />
<glyph unicode="m" horiz-adv-x="1736" d="M156 -2v975h200l35 -53q31 8 67 19t73.5 22.5t74.5 18.5t68 7q84 0 146.5 -19.5t107.5 -62.5q33 8 79 22.5t95 28t95 22.5t79 9q188 0 266 -94t78 -272v-623h-258v614q0 39 -2 64.5t-15.5 40t-41 19.5t-78.5 5q-16 0 -44 -6t-58.5 -14t-59.5 -16.5t-47 -14.5v-692h-256 v614q0 39 -2 64.5t-15.5 40t-41 19.5t-78.5 5q-16 0 -45 -6t-60 -14t-58.5 -16.5t-45.5 -12.5v-694h-258z" />
<glyph unicode="n" horiz-adv-x="1132" d="M160 -2v975h198l35 -41q80 18 161 36.5t163 18.5q188 0 266 -94t78 -272v-623h-256v614q0 43 -3 71t-16.5 44t-41 22.5t-78.5 6.5q-57 0 -123 -12.5t-125 -22.5v-723h-258z" />
<glyph unicode="o" horiz-adv-x="1093" d="M125 350v268q0 180 78 273.5t266 93.5h215q188 0 265 -93t77 -274v-268q0 -178 -77 -272t-265 -94h-215q-188 0 -266 94t-78 272zM383 358q0 -43 2 -70.5t15.5 -44t41 -22.5t78.5 -6h113q51 0 78.5 6t41 22.5t15.5 44t2 70.5v252q0 43 -2 71t-15.5 44t-41 22.5t-78.5 6.5 h-113q-51 0 -78.5 -6.5t-41 -22.5t-15.5 -44t-2 -71v-252z" />
<glyph unicode="p" horiz-adv-x="1148" d="M162 -387v1360h196l37 -41q78 18 159 36.5t165 18.5q188 0 265 -94t77 -272v-271q0 -178 -77 -272t-265 -94q-78 0 -151.5 16t-149.5 33v-420h-256zM420 250q57 -10 122.5 -22.5t125.5 -12.5q51 0 78.5 6t41 22.5t15.5 44t2 70.5v254q0 43 -2 71t-15.5 44t-41 22.5 t-78.5 6.5q-59 0 -124 -12.5t-124 -22.5v-471z" />
<glyph unicode="q" horiz-adv-x="1126" d="M125 350v271q0 178 78 272t266 94q82 0 163 -18.5t161 -36.5l36 41h197v-1360h-258v420q-74 -16 -148.5 -32.5t-150.5 -16.5q-188 0 -266 94t-78 272zM383 358q0 -43 2 -70.5t15.5 -44t41 -22.5t78.5 -6q57 0 123 12.5t125 22.5v471q-59 10 -124.5 22.5t-123.5 12.5 q-51 0 -78.5 -6.5t-41 -22.5t-15.5 -44t-2 -71v-254z" />
<glyph unicode="r" horiz-adv-x="802" d="M156 0v971h196l35 -41q80 16 160 34.5t164 18.5q31 0 63.5 -5t85.5 -26l-67 -231q-23 12 -38.5 18t-29.5 9.5t-28.5 4.5t-37.5 1q-59 0 -123.5 -12.5t-123.5 -22.5v-719h-256z" />
<glyph unicode="s" horiz-adv-x="878" d="M94 43v215q113 -23 203 -33t168 -12q49 0 93 13.5t48 62.5q0 41 -12 47t-27 10q-78 23 -158.5 39t-156.5 57q-68 37 -112 97.5t-44 160.5q0 80 33 134.5t83 88t111.5 48t118.5 14.5q25 0 72 -7t103.5 -18.5t117 -25.5t109.5 -29l-74 -203q-80 23 -150.5 34.5t-146.5 19.5 q-41 0 -81 -12.5t-40 -43.5q0 -29 18.5 -45t53.5 -26q35 -12 79 -20.5t91 -18.5q47 -12 93 -29.5t83 -49.5t59.5 -80t22.5 -120q0 -66 -16.5 -125t-53.5 -104t-98 -72.5t-154 -27.5q-102 0 -213.5 19t-222.5 42z" />
<glyph unicode="t" horiz-adv-x="806" d="M18 758v217h213v289h256v-289h236v-217h-236v-400q0 -43 3.5 -70.5t16.5 -44t40.5 -22.5t79.5 -6q39 0 86 13.5t88 23.5v-223q-41 -8 -67.5 -16.5t-50.5 -14.5t-48.5 -10t-59.5 -4q-188 0 -266 94t-78 272v408h-213z" />
<glyph unicode="u" horiz-adv-x="1126" d="M139 354v621h258v-613q0 -43 2 -70.5t15.5 -44t41 -22.5t79.5 -6q57 0 122.5 11.5t124.5 21.5v723h258v-975h-196l-37 41q-80 -16 -161 -34.5t-163 -18.5q-188 0 -266 93t-78 273z" />
<glyph unicode="v" horiz-adv-x="972" d="M-2 975h276l244 -660l246 660h274l-417 -975h-201z" />
<glyph unicode="w" horiz-adv-x="1497" d="M-2 975h274l252 -660l117 322l-125 291l252 51l252 -664l240 660h274l-418 -975h-201l-147 342l-147 -342h-201z" />
<glyph unicode="x" horiz-adv-x="948" d="M-20 0l382 498l-370 477h287l229 -291l227 291h287l-371 -477l383 -498h-286l-240 311l-242 -311h-286z" />
<glyph unicode="y" horiz-adv-x="1097" d="M139 -111q57 -10 126 -22t139.5 -23.5t135 -19.5t111.5 -8q45 0 72 5t41 14t17 23.5t3 30.5v144q-29 -6 -69.5 -14.5t-83.5 -14.5t-82 -11t-64 -5q-188 0 -266 93t-78 273v621h258v-613q0 -43 2 -70.5t15.5 -44t41 -22.5t79.5 -6q14 0 45.5 4t68.5 9.5t73 10.5t60 9v723 h258v-1077q0 -313 -340 -314q-37 0 -107.5 10.5t-153.5 25.5t-163.5 31.5t-138.5 29.5v208z" />
<glyph unicode="z" horiz-adv-x="962" d="M94 -2v207l506 540h-469v232h709l90 -199l-504 -549h508v-231h-840z" />
<glyph unicode="{" horiz-adv-x="675" d="M18 557v221q49 0 76 26.5t41.5 65.5t17.5 83t3 79v320q0 84 25.5 142t71.5 94t108.5 51.5t136.5 15.5q59 0 116.5 -11.5t116.5 -23.5v-221q-43 8 -91 16t-91 8q-23 0 -47.5 -1t-44 -8t-32.5 -21.5t-13 -40.5v-404q0 -35 -4.5 -73.5t-16.5 -76.5t-34.5 -72t-57.5 -58 q35 -25 57.5 -59t34.5 -72.5t17.5 -77.5t5.5 -72v-403q0 -27 12 -41.5t32.5 -21.5t44 -8t46.5 -1q43 0 91 8t91 17v-222q-41 -10 -80 -18q-35 -6 -75.5 -11t-77.5 -5q-74 0 -136.5 15t-108.5 51t-71.5 94.5t-25.5 142.5v319q0 35 -3 79t-17.5 83t-41 65.5t-76.5 26.5z" />
<glyph unicode="|" horiz-adv-x="483" d="M162 -244v1835h258v-1835h-258z" />
<glyph unicode="}" horiz-adv-x="675" d="M18 -63q45 -8 95.5 -16.5t95.5 -8.5q20 0 45 1t44 8t32.5 21.5t13.5 41.5v403q0 33 5 72t17.5 77.5t34 72.5t56.5 59q-35 25 -57.5 58.5t-35 71.5t-17.5 76.5t-5 73.5v404q0 27 -12.5 41t-33 21t-44 8t-43.5 1q-45 0 -95.5 -8t-95.5 -16v221q72 14 129.5 24.5t112.5 10.5 q74 0 135.5 -15.5t107.5 -51.5t71.5 -94t25.5 -142v-320q0 -35 3 -79t17.5 -83t42 -65.5t74.5 -26.5v-221q-47 -2 -74.5 -27.5t-42 -64.5t-17.5 -82t-3 -80v-319q0 -84 -25.5 -142.5t-71.5 -94.5t-107.5 -51t-135.5 -15q-51 0 -104.5 9t-137.5 25v222z" />
<glyph unicode="~" horiz-adv-x="1132" d="M113 1036q37 55 74.5 105.5t79.5 89.5t91.5 62.5t108.5 23.5q31 0 51.5 -6t35.5 -17.5t28.5 -27t31.5 -35.5q20 -20 52 -21q8 0 21 3.5t29.5 14.5t37 33.5t45.5 59.5l219 -39q-35 -53 -73 -103.5t-81 -90t-92 -64.5t-102 -25q-31 0 -54.5 6.5t-43 17.5t-38 26.5 t-40.5 33.5q-4 4 -11.5 9.5t-15.5 5.5q-20 0 -39.5 -11.5t-37 -27t-34 -32.5t-28.5 -30z" />
<glyph unicode="&#xa1;" horiz-adv-x="509" d="M135 -338l64 934h200l64 -934h-328zM158 690v289h284v-289h-284z" />
<glyph unicode="&#xa2;" horiz-adv-x="1038" d="M125 350v277q0 174 77 266t261 92v184h258v-184q106 -6 176 -53t113 -156l-224 -82q-12 29 -25 40t-40 16v-517l244 29l12 -211q-127 -27 -256 -43v-190h-258v166q-184 2 -261 96t-77 270zM383 358q0 -74 11.5 -103.5t68.5 -35.5v533q-29 -4 -45.5 -12.5t-24.5 -25 t-9 -42t-1 -62.5v-252z" />
<glyph unicode="&#xa3;" horiz-adv-x="925" d="M18 0v231h265l-64 344h-201v218h193v155q0 178 78 269.5t266 91.5q70 0 157 -7.5t203 -31.5l-12 -213q-109 14 -176.5 17t-120.5 3q-49 0 -76.5 -6t-40 -20.5t-15.5 -40t-3 -62.5v-155h266v-218h-262l47 -344h451v-231h-955z" />
<glyph unicode="&#xa4;" horiz-adv-x="1069" d="M18 393v234h123v75h-123v234h123v18q0 180 78 274.5t266 94.5q35 0 102.5 -6t146.5 -15.5t159 -22.5t137 -26l-12 -211q-59 8 -129 17.5t-135.5 16.5t-116.5 11.5t-74 4.5q-51 0 -78.5 -6.5t-41 -22.5t-16.5 -44t-3 -71v-12h344v-234h-344v-75h344v-234h-344v-35 q0 -43 3 -70.5t16.5 -44t41 -22.5t78.5 -6q23 0 74 4t116.5 11.5t135 15.5t129.5 16l12 -211q-57 -12 -137 -24.5t-159 -21.5t-146.5 -15t-102.5 -6q-188 0 -266 94t-78 272v43h-123z" />
<glyph unicode="&#xa5;" horiz-adv-x="1224" d="M-18 1317h311l332 -475l358 475h309l-362 -506h135v-233h-295v-78h295v-234h-295v-266h-285v266h-276v234h276v78h-276v233h137z" />
<glyph unicode="&#xa6;" horiz-adv-x="454" d="M162 -242v938h258v-938h-258zM162 772v821h258v-821h-258z" />
<glyph unicode="&#xa7;" horiz-adv-x="1042" d="M98 975q0 115 52.5 184.5t124 107.5t146.5 50t120 12q57 0 106 -7t98.5 -19.5t99.5 -31t109 -38.5l-47 -193q-80 16 -161.5 36t-165.5 20q-111 0 -163 -38t-52 -83q0 -57 50 -95t154 -75q76 -29 153 -58.5t138.5 -74.5t99 -110.5t37.5 -166.5q0 -98 -27.5 -157.5 t-64.5 -92.5q45 -43 72 -103t27 -142q0 -86 -30 -161t-87.5 -130t-142.5 -88t-195 -33q-55 0 -99 2t-88.5 9t-93.5 20.5t-116 38.5l-25 229q68 -23 119 -35t97 -18t94 -8t112 -2q47 0 82 15t57.5 39.5t33.5 56.5t11 65q0 29 -19.5 51t-57.5 42.5t-95 41t-131 47.5 q-59 20 -117.5 53t-104.5 80t-75 111.5t-29 152.5q0 98 31 153.5t60 82.5q-45 49 -71 112.5t-26 147.5zM373 479q0 -57 49 -94t156 -76q35 -12 68.5 -23.5t68.5 -25.5q8 2 10 12.5t2 24.5l-2 98q0 29 -16.5 51.5t-57.5 45.5q-51 27 -104 44t-107 35q-35 -16 -51 -40.5 t-16 -51.5z" />
<glyph unicode="&#xa8;" d="M201 1171q0 59 42 101.5t101 42.5q61 0 104.5 -41t43.5 -100t-40 -104.5t-104 -45.5q-63 0 -105 43t-42 104zM618 1171q0 59 43.5 101.5t102.5 42.5t102 -41t43 -100t-39 -104.5t-104 -45.5q-61 0 -104.5 43t-43.5 104z" />
<glyph unicode="&#xa9;" horiz-adv-x="1384" d="M18 659q0 143 54.5 269.5t148.5 220.5t221 148.5t271 54.5q143 0 270 -54.5t221 -148.5t148.5 -220.5t54.5 -269.5t-54.5 -270t-148.5 -221t-221 -148.5t-270 -54.5t-270.5 54.5t-221.5 148.5t-148.5 221t-54.5 270zM211 659q0 -104 40 -195t107.5 -159.5t158.5 -107.5 t196 -39q104 0 195 39t159 107.5t107.5 159.5t39.5 195t-39.5 195.5t-107.5 159t-159 107.5t-195 40t-195.5 -40t-159 -107.5t-107.5 -158.5t-40 -196zM420 481v346q0 111 49 170.5t166 59.5h139q74 0 126 -31t87 -117l-162 -59q-10 27 -22 33t-29 6h-94q-41 0 -51.5 -7.5 t-10.5 -35.5v-361q0 -37 8.5 -52t55.5 -15q12 0 43 4t70 8t83 8t83 4l10 -155q-41 0 -91.5 -5.5t-98.5 -12.5t-87 -12t-57 -5q-119 0 -168 59.5t-49 169.5z" />
<glyph unicode="&#xaa;" horiz-adv-x="905" d="M88 358v174h797v-174h-797zM117 813q0 18 7 53t32.5 71t78 66.5t144.5 38.5l219 21v16q0 23 -13.5 40.5t-80.5 17.5q-16 0 -54 -3.5t-85.5 -9.5t-100.5 -12t-100 -12l-10 178q45 10 102 19.5t111.5 16.5t101.5 11t74 4q147 0 207.5 -72.5t60.5 -212.5v-473h-154l-20 37 q-41 -25 -88 -37t-80 -12h-86q-100 0 -154.5 34t-79 78t-28.5 86t-4 56zM330 801q2 -12 4 -21.5t11 -15.5t27.5 -9t49.5 -3h39q72 0 103.5 28.5t33.5 93.5l-172 -24q-31 -4 -49.5 -8t-28.5 -9.5t-13 -12.5t-5 -19z" />
<glyph unicode="&#xab;" d="M-8 563l600 436l92 -198l-340 -238l340 -244l-92 -200zM418 563l600 436l92 -198l-340 -238l340 -244l-92 -200z" />
<glyph unicode="&#xac;" horiz-adv-x="1159" d="M88 590v233h1036v-422h-233v189h-803z" />
<glyph unicode="&#xad;" horiz-adv-x="905" d="M88 440v234h797v-234h-797z" />
<glyph unicode="&#xae;" horiz-adv-x="1384" d="M18 659q0 143 54.5 269.5t148.5 220.5t221 148.5t271 54.5q143 0 270 -54.5t221 -148.5t148.5 -220.5t54.5 -269.5t-54.5 -270t-148.5 -221t-221 -148.5t-270 -54.5t-270.5 54.5t-221.5 148.5t-148.5 221t-54.5 270zM211 659q0 -104 40 -195t107.5 -159.5t158.5 -107.5 t196 -39q86 0 163.5 27.5t143.5 74.5h-125l-186 242q-25 4 -52.5 7t-56.5 7v-256h-176v795h133l18 -21q47 10 95.5 19.5t95.5 9.5q229 0 229 -229v-107q0 -68 -22.5 -118t-69.5 -79l170 -221q66 68 103.5 157t37.5 193t-39.5 195.5t-107.5 159t-159 107.5t-195 40 t-195.5 -40t-159 -107.5t-107.5 -158.5t-40 -196zM602 676q41 -4 78 -7t55 -3q47 0 55.5 15t8.5 52v96q0 37 -8.5 51.5t-55.5 14.5q-35 0 -67.5 -6t-65.5 -10v-203z" />
<glyph unicode="&#xaf;" horiz-adv-x="905" d="M88 1214v234h797v-234h-797z" />
<glyph unicode="&#xb0;" horiz-adv-x="591" d="M88 1100q0 51 19.5 96t53.5 79t79 53.5t96 19.5t97 -19.5t81 -52.5t54.5 -78t19.5 -94q0 -53 -18.5 -100.5t-50.5 -82t-77 -55t-98 -20.5t-100 20.5t-82 54t-54.5 80t-19.5 99.5zM289 1098q0 -23 14 -37t37 -14q20 0 34.5 14t14.5 39q0 18 -14.5 33.5t-36.5 15.5 q-20 0 -34.5 -14.5t-14.5 -36.5z" />
<glyph unicode="&#xb1;" horiz-adv-x="1847" d="M18 758v217h195l-2 33q-10 180 74 271t270 91q68 0 122 -13.5t120 -27.5l-13 -211q-57 8 -94 14.5t-84 6.5q-49 0 -76.5 -6.5t-40 -21.5t-15.5 -39.5t-3 -61.5v-35h342v41q0 174 79 264t263 90q68 0 126 -13.5t124 -27.5v-211q-57 8 -104.5 14.5t-94.5 6.5 q-49 0 -76.5 -6.5t-40 -21.5t-15.5 -39.5t-3 -61.5v-35h379v375h258v-1352h-258v760h-379v-758h-258v758h-342v-758h-258v758h-195z" />
<glyph unicode="&#xb2;" horiz-adv-x="729" d="M84 1176q25 66 64.5 100.5t76.5 50.5q43 20 90 23h154q72 0 115 -26t66.5 -60.5t31.5 -69.5t8 -51q0 -37 -10 -70t-21 -57q-14 -29 -30 -51l-228 -295h316v-205l-619 2v166l314 397q33 41 45 64.5t12 33.5v2q-2 12 -13.5 14.5t-29.5 2.5h-86q-29 0 -48.5 -20.5 t-23.5 -24.5z" />
<glyph unicode="&#xb3;" horiz-adv-x="696" d="M78 1171q39 102 97 139.5t140 37.5h134q127 0 183 -67.5t56 -180.5q0 -37 -5 -65.5t-11 -49.5q-8 -23 -17 -39q23 -41 28 -85t5 -89v-57q0 -121 -54 -190.5t-188 -69.5q-23 0 -61.5 4t-85.5 10t-97 15.5t-96 19.5l11 188q96 -12 183 -22.5t116 -10.5q41 0 48 13.5t7 48.5 v82q0 29 -7 37t-34 8h-250v203h252q29 0 34 7t5 40q0 29 -7 38t-48 9h-88q-10 0 -19.5 -7.5t-19.5 -15.5q-10 -10 -21 -22z" />
<glyph unicode="&#xb4;" d="M274 1040l342 314l324 -76l-432 -277z" />
<glyph unicode="&#xb5;" horiz-adv-x="1126" d="M139 -387v1362h258v-613q0 -43 2 -70.5t15.5 -44t41 -22.5t79.5 -6q14 0 42.5 3t64.5 8.5t73 11.5t67 10v723h258v-975h-196l-37 41q-80 -16 -160 -34.5t-164 -18.5q-49 0 -88 6v-381h-256z" />
<glyph unicode="&#xb6;" horiz-adv-x="1095" d="M125 874v87q0 367 371 366q66 0 130 -18.5t130 -34.5l35 41h204v-1471h-266v699q-31 -6 -57.5 -12.5t-50.5 -10.5v-676h-263v678q-121 33 -177 122t-56 230z" />
<glyph unicode="&#xb7;" horiz-adv-x="509" d="M158 387v291h284v-291h-284z" />
<glyph unicode="&#xb8;" horiz-adv-x="509" d="M143 -297l54 141h-39v234h284v-201l-129 -229z" />
<glyph unicode="&#xb9;" horiz-adv-x="536" d="M55 1096l273 252h180v-883h-213v586l-37 -35z" />
<glyph unicode="&#xba;" horiz-adv-x="905" d="M88 358v174h797v-174h-797zM133 842v200q0 137 60.5 211t207.5 74h160q147 0 207.5 -73.5t60.5 -211.5v-200q0 -139 -60 -213t-208 -74h-160q-147 0 -207.5 73.5t-60.5 213.5zM346 846q0 -29 2 -47.5t11.5 -29.5t28 -15t52.5 -4h84q33 0 52.5 4t27.5 15t10 29.5t2 47.5 v190q0 29 -2 47.5t-10 29.5t-27.5 16.5t-52.5 5.5h-84q-35 0 -53 -5.5t-27.5 -16.5t-11.5 -29.5t-2 -47.5v-190z" />
<glyph unicode="&#xbb;" d="M8 801l92 198l600 -436l-600 -444l-90 200l338 244zM434 801l92 198l600 -436l-600 -444l-90 200l338 244z" />
<glyph unicode="&#xbc;" horiz-adv-x="1531" d="M55 1096l273 252h180v-883h-213v586l-37 -35zM365 0l671 1442h267l-672 -1442h-266zM909 170v164l324 551h252v-510h69v-205h-69v-168h-219v168h-357zM1174 375h92v155z" />
<glyph unicode="&#xbd;" horiz-adv-x="1716" d="M55 1096l273 252h180v-883h-213v586l-37 -35zM365 0l671 1442h267l-672 -1442h-266zM1016 711q25 66 64.5 100.5t76.5 50.5q43 20 92 23h152q70 0 114 -25.5t68.5 -59.5t32.5 -69t8 -51q0 -37 -10 -69.5t-23 -57.5q-14 -29 -30 -53l-228 -297h318v-203h-619v168l314 397 q33 41 45 65.5t12 35.5q-2 10 -14.5 13t-30.5 3h-86q-29 0 -48.5 -20.5t-23.5 -24.5z" />
<glyph unicode="&#xbe;" horiz-adv-x="1529" d="M78 1171q39 102 97 139.5t140 37.5h134q127 0 183 -67.5t56 -180.5q0 -37 -5 -65.5t-11 -49.5q-8 -23 -17 -39q23 -41 28 -85t5 -89v-57q0 -121 -54 -190.5t-188 -69.5q-23 0 -61.5 4t-85.5 10t-97 15.5t-96 19.5l11 188q96 -12 183 -22.5t116 -10.5q41 0 48 13.5t7 48.5 v82q0 29 -7 37t-34 8h-250v203h252q29 0 34 7t5 40q0 29 -7 38t-48 9h-88q-10 0 -19.5 -7.5t-19.5 -15.5q-10 -10 -21 -22zM444 0l670 1442h266l-669 -1442h-267zM987 170v164l324 551h252v-510h69v-205h-69v-168h-220v168h-356zM1253 375h90v155z" />
<glyph unicode="&#xbf;" horiz-adv-x="913" d="M20 -37q0 178 77 272.5t268 94.5q23 0 59.5 -3t81.5 -8l-111 271h287l176 -350v-189q-59 8 -126.5 16.5t-131 15.5t-113 11t-71.5 4q-63 0 -90 -10t-37 -31q-8 -16 -10.5 -53t-2.5 -127q0 -31 5.5 -50.5t19.5 -30.5t41 -16t72 -5h101t59.5 1t31.5 2t19 3q16 4 29.5 15 t25.5 38l225 -82q-47 -117 -126 -163t-201 -46h-216q-106 0 -172.5 29t-104.5 82t-51.5 132t-13.5 177zM416 680v291h284v-291h-284z" />
<glyph unicode="&#xc0;" horiz-adv-x="1183" d="M2 0l506 1317h258l508 -1317h-299l-135 375h-410l-129 -375h-299zM141 1610l322 76l344 -314l-236 -37zM510 606h248l-125 350z" />
<glyph unicode="&#xc1;" horiz-adv-x="1183" d="M2 0l506 1317h258l508 -1317h-299l-135 375h-410l-129 -375h-299zM457 1372l342 314l323 -76l-432 -275zM510 606h248l-125 350z" />
<glyph unicode="&#xc2;" horiz-adv-x="1183" d="M2 0l506 1317h258l508 -1317h-299l-135 375h-410l-129 -375h-299zM205 1372l430 397l432 -397l-233 -37l-199 125l-197 -125zM510 606h248l-125 350z" />
<glyph unicode="&#xc3;" horiz-adv-x="1183" d="M2 0l506 1317h258l508 -1317h-299l-135 375h-410l-129 -375h-299zM172 1370q39 53 77 103.5t79 89.5t90 62.5t108 23.5q31 0 51.5 -6.5t36 -16.5t28.5 -26.5t32 -34.5q20 -23 51 -23q18 0 50 18.5t83 92.5l219 -39q-35 -53 -72.5 -103.5t-80.5 -90.5t-91.5 -64.5 t-101.5 -24.5q-33 0 -55.5 6t-42 18.5t-37.5 28t-41 33.5q-16 12 -29 13q-20 0 -39.5 -11.5t-37 -27t-34 -33t-28.5 -29.5zM510 606h248l-125 350z" />
<glyph unicode="&#xc4;" horiz-adv-x="1183" d="M2 0l506 1317h258l508 -1317h-299l-135 375h-410l-129 -375h-299zM274 1503q0 59 43 102.5t103 43.5q59 0 102 -42.5t43 -101.5t-40 -104t-103 -45q-61 0 -104.5 44t-43.5 103zM510 606h248l-125 350zM692 1503q0 59 43 102.5t103 43.5q59 0 102 -42.5t43 -101.5 t-39 -104t-102 -45t-106.5 44t-43.5 103z" />
<glyph unicode="&#xc5;" horiz-adv-x="1183" d="M2 0l492 1276h286l494 -1276h-299l-135 375h-410l-129 -375h-299zM377 1559q0 51 19.5 96t53 78.5t78.5 53t97 19.5q51 0 97 -19.5t81 -53t54.5 -77.5t19.5 -95q0 -53 -18.5 -99.5t-50.5 -82.5t-77 -56t-98 -20t-100.5 20t-82 55t-54 81t-19.5 100zM510 606h248l-125 350 zM578 1556q0 -23 14 -38t37 -15q20 0 34.5 14.5t14.5 41.5q0 18 -14.5 32.5t-36.5 14.5q-20 0 -34.5 -14.5t-14.5 -35.5z" />
<glyph unicode="&#xc6;" horiz-adv-x="1679" d="M-8 0l721 1317h903v-230h-547v-268h465v-231h-465v-357h547v-231h-830v377h-294l-199 -377h-301zM618 606h168v314z" />
<glyph unicode="&#xc7;" horiz-adv-x="1069" d="M98 4q59 0 99.5 -7t69 -15.5t50 -15.5t43.5 -7q18 0 31 12q6 6 8 15q-43 8 -88 28.5t-84 61.5t-63.5 107.5t-24.5 166.5v600q0 180 78 273.5t266 93.5h242q123 0 202 -46t126 -163l-226 -82q-16 37 -38.5 48t-59.5 11h-168q-51 0 -78.5 -6t-41 -22.5t-15.5 -44t-2 -70.5 v-584q0 -43 3 -70.5t16.5 -44t41 -22.5t78.5 -6q23 0 74 4t116.5 11.5t135 15.5t129.5 16l12 -211q-66 -14 -139.5 -23.5t-147.5 -17.5q-12 -53 -36.5 -99t-64.5 -81t-97.5 -55.5t-132.5 -20.5q-35 0 -68 6.5t-68 14.5q-29 6 -67.5 11t-110.5 5v213z" />
<glyph unicode="&#xc8;" horiz-adv-x="1015" d="M111 1610l323 76l342 -314l-233 -37zM158 0v1317h829v-230h-545v-270h465v-229h-465v-357h545v-231h-829z" />
<glyph unicode="&#xc9;" horiz-adv-x="1015" d="M158 0v1317h829v-230h-545v-270h465v-229h-465v-357h545v-231h-829zM336 1372l342 314l323 -76l-432 -275z" />
<glyph unicode="&#xca;" horiz-adv-x="1015" d="M143 1372l432 397l431 -397l-234 -37l-197 125l-196 -125zM158 0v1317h829v-230h-545v-270h465v-229h-465v-357h545v-231h-829z" />
<glyph unicode="&#xcb;" horiz-adv-x="1015" d="M158 0v1317h829v-230h-545v-270h465v-229h-465v-357h545v-231h-829zM215 1503q0 59 42 102.5t101 43.5t102.5 -42.5t43.5 -101.5t-39 -104t-103 -45q-63 0 -105 44t-42 103zM633 1503q0 59 42 102.5t101 43.5q61 0 104.5 -42.5t43.5 -101.5t-40 -104t-104 -45 q-63 0 -105 44t-42 103z" />
<glyph unicode="&#xcc;" horiz-adv-x="509" d="M-131 1610l324 76l342 -314l-234 -37zM158 0v1317h284v-1317h-284z" />
<glyph unicode="&#xcd;" horiz-adv-x="509" d="M94 1372l342 314l324 -76l-432 -275zM158 0v1317h284v-1317h-284z" />
<glyph unicode="&#xce;" horiz-adv-x="509" d="M-139 1372q35 33 90 84t116.5 107.5t121 112t102.5 93.5l430 -397l-234 -37l-196 125l-197 -125zM158 0v1317h284v-1317h-284z" />
<glyph unicode="&#xcf;" horiz-adv-x="509" d="M-57 1503q0 59 42 102.5t101 43.5q61 0 104 -42.5t43 -101.5t-39.5 -104t-103.5 -45q-63 0 -105 44t-42 103zM158 0v1317h284v-1317h-284zM360 1503q0 59 43 102.5t103 43.5q59 0 102 -42.5t43 -101.5t-40 -104t-103 -45q-61 0 -104.5 44t-43.5 103z" />
<glyph unicode="&#xd0;" horiz-adv-x="1282" d="M18 758v217h140v344h225l37 -45q45 8 100 18.5t112.5 18.5t113 14t100.5 6q190 0 267 -95t77 -271v-598q0 -176 -75 -270.5t-263 -94.5h-694v756h-140zM442 231h326q47 0 74.5 5.5t42 19.5t18.5 42t4 73v585q0 47 -4 75t-18.5 43.5t-42 20.5t-74.5 5q-16 0 -36.5 -1 t-55.5 -5t-90.5 -11.5t-143.5 -19.5v-88h281v-217h-281v-527z" />
<glyph unicode="&#xd1;" horiz-adv-x="1347" d="M150 0v1317h225l583 -852v852h285v-1317h-262l-549 805v-805h-282zM233 1370q33 45 68 94t77 90t93 68t117 27q31 0 51 -6.5t35.5 -16.5t29 -26.5t31.5 -34.5q20 -23 51 -23q18 0 50 18.5t84 92.5l219 -39q-35 -53 -73 -103.5t-81 -90.5t-92 -64.5t-102 -24.5 q-31 0 -54.5 6t-43 18.5t-38 28t-41.5 33.5q-12 12 -26 13q-20 0 -40 -11.5t-37 -27t-33.5 -33t-28.5 -29.5z" />
<glyph unicode="&#xd2;" horiz-adv-x="1236" d="M139 367v596q0 178 78 272t266 94h320q188 0 266 -94t78 -272v-596q0 -178 -78 -272.5t-266 -94.5h-320q-188 0 -266 94t-78 273zM170 1610l324 76l342 -314l-234 -37zM424 375q0 -43 2 -71t15.5 -44t41 -22.5t78.5 -6.5h164q51 0 78.5 6.5t41 22.5t16.5 44t3 71v579 q0 43 -3 71t-16.5 44t-41 22.5t-78.5 6.5h-164q-51 0 -78.5 -6.5t-41 -22.5t-15.5 -44t-2 -71v-579z" />
<glyph unicode="&#xd3;" horiz-adv-x="1236" d="M139 367v596q0 178 78 272t266 94h320q188 0 266 -94t78 -272v-596q0 -178 -78 -272.5t-266 -94.5h-320q-188 0 -266 94t-78 273zM424 375q0 -43 2 -71t15.5 -44t41 -22.5t78.5 -6.5h164q51 0 78.5 6.5t41 22.5t16.5 44t3 71v579q0 43 -3 71t-16.5 44t-41 22.5t-78.5 6.5 h-164q-51 0 -78.5 -6.5t-41 -22.5t-15.5 -44t-2 -71v-579zM426 1372l342 314l324 -76l-433 -275z" />
<glyph unicode="&#xd4;" horiz-adv-x="1236" d="M139 367v596q0 178 78 272t266 94h320q188 0 266 -94t78 -272v-596q0 -178 -78 -272.5t-266 -94.5h-320q-188 0 -266 94t-78 273zM205 1372l430 397l432 -397l-233 -37l-199 125l-197 -125zM424 375q0 -43 2 -71t15.5 -44t41 -22.5t78.5 -6.5h164q51 0 78.5 6.5t41 22.5 t16.5 44t3 71v579q0 43 -3 71t-16.5 44t-41 22.5t-78.5 6.5h-164q-51 0 -78.5 -6.5t-41 -22.5t-15.5 -44t-2 -71v-579z" />
<glyph unicode="&#xd5;" horiz-adv-x="1236" d="M139 367v596q0 178 78 272t266 94h320q188 0 266 -94t78 -272v-596q0 -178 -78 -272.5t-266 -94.5h-320q-188 0 -266 94t-78 273zM172 1391q39 53 77 103t79 89t90 62.5t108 23.5q31 0 51.5 -6t36 -16.5t28.5 -26.5t32 -35q20 -23 51 -22q18 0 50 18t83 92l219 -39 q-35 -53 -72.5 -103t-80.5 -90t-91.5 -64.5t-101.5 -24.5q-33 0 -55.5 6t-42 18.5t-37.5 27.5t-41 34q-16 12 -29 12q-20 0 -39.5 -11.5t-37 -26.5t-34 -32.5t-28.5 -29.5zM424 375q0 -43 2 -71t15.5 -44t41 -22.5t78.5 -6.5h164q51 0 78.5 6.5t41 22.5t16.5 44t3 71v579 q0 43 -3 71t-16.5 44t-41 22.5t-78.5 6.5h-164q-51 0 -78.5 -6.5t-41 -22.5t-15.5 -44t-2 -71v-579z" />
<glyph unicode="&#xd6;" horiz-adv-x="1236" d="M139 367v596q0 178 78 272t266 94h320q188 0 266 -94t78 -272v-596q0 -178 -78 -272.5t-266 -94.5h-320q-188 0 -266 94t-78 273zM274 1503q0 59 43 102.5t103 43.5q59 0 102 -42.5t43 -101.5t-40 -104t-103 -45q-61 0 -104.5 44t-43.5 103zM424 375q0 -43 2 -71 t15.5 -44t41 -22.5t78.5 -6.5h164q51 0 78.5 6.5t41 22.5t16.5 44t3 71v579q0 43 -3 71t-16.5 44t-41 22.5t-78.5 6.5h-164q-51 0 -78.5 -6.5t-41 -22.5t-15.5 -44t-2 -71v-579zM692 1503q0 59 43 102.5t103 43.5q59 0 102 -42.5t43 -101.5t-39 -104t-102 -45t-106.5 44 t-43.5 103z" />
<glyph unicode="&#xd7;" horiz-adv-x="790" d="M2 422l285 285l-285 284l166 164l285 -283l282 283l166 -164l-285 -284l285 -285l-166 -164l-282 283l-285 -283z" />
<glyph unicode="&#xd8;" horiz-adv-x="1236" d="M139 367v596q0 178 78 272t266 94h289l51 129h264l-71 -178q74 -47 102.5 -127t28.5 -190v-596q0 -178 -78 -272.5t-266 -94.5h-299l-45 -113h-264l67 168q-70 47 -96.5 127t-26.5 185zM424 457l256 641h-119q-51 0 -78.5 -6.5t-41 -22.5t-15.5 -44t-2 -71v-497zM598 231 h127q51 0 78.5 6.5t41 22.5t16.5 44t3 71v522z" />
<glyph unicode="&#xd9;" horiz-adv-x="1247" d="M139 350v967h285v-959q0 -43 2 -70.5t15.5 -44t41 -22.5t78.5 -6q27 0 66 5t82 12.5t84 14.5t71 11v1059h283v-1319h-223l-37 43q-47 -10 -105.5 -19.5t-115 -18.5t-105.5 -14t-78 -5q-188 0 -266 94t-78 272zM170 1610l324 76l342 -314l-234 -37z" />
<glyph unicode="&#xda;" horiz-adv-x="1247" d="M139 350v967h285v-959q0 -43 2 -70.5t15.5 -44t41 -22.5t78.5 -6q27 0 66 5t82 12.5t84 14.5t71 11v1059h283v-1319h-223l-37 43q-47 -10 -105.5 -19.5t-115 -18.5t-105.5 -14t-78 -5q-188 0 -266 94t-78 272zM426 1372l342 314l324 -76l-433 -275z" />
<glyph unicode="&#xdb;" horiz-adv-x="1247" d="M139 350v967h285v-959q0 -43 2 -70.5t15.5 -44t41 -22.5t78.5 -6q27 0 66 5t82 12.5t84 14.5t71 11v1059h283v-1319h-223l-37 43q-47 -10 -105.5 -19.5t-115 -18.5t-105.5 -14t-78 -5q-188 0 -266 94t-78 272zM205 1372l430 397l432 -397l-233 -37l-199 125l-197 -125z " />
<glyph unicode="&#xdc;" horiz-adv-x="1247" d="M139 350v967h285v-959q0 -43 2 -70.5t15.5 -44t41 -22.5t78.5 -6q27 0 66 5t82 12.5t84 14.5t71 11v1059h283v-1319h-223l-37 43q-47 -10 -105.5 -19.5t-115 -18.5t-105.5 -14t-78 -5q-188 0 -266 94t-78 272zM274 1503q0 59 43 102.5t103 43.5q59 0 102 -42.5t43 -101.5 t-40 -104t-103 -45q-61 0 -104.5 44t-43.5 103zM692 1503q0 59 43 102.5t103 43.5q59 0 102 -42.5t43 -101.5t-39 -104t-102 -45t-106.5 44t-43.5 103z" />
<glyph unicode="&#xdd;" horiz-adv-x="1163" d="M41 1319h303l344 -606l340 606h305l-499 -895v-422h-293v422zM444 1389l342 313l324 -76l-432 -276z" />
<glyph unicode="&#xde;" horiz-adv-x="1198" d="M160 2v1313h284v-217q78 16 155 32.5t157 16.5q369 0 368 -367v-221q0 -367 -368 -366q-59 0 -144.5 10t-169.5 26v-227h-282zM442 444q78 -10 151 -15t112 -5q51 0 78.5 6t41 22.5t15.5 44t2 70.5v205q0 43 -2 70.5t-15.5 44t-41 22.5t-78.5 6q-61 0 -131 -11t-132 -21 v-439z" />
<glyph unicode="&#xdf;" horiz-adv-x="1228" d="M18 664v231h146v115q0 178 77.5 269t264.5 91h219q63 0 124.5 -15.5t110 -49t78 -88t29.5 -130.5q0 -84 -30.5 -133t-80 -79.5t-109 -52t-116.5 -50.5q-23 -10 -26 -28.5t-3 -38.5v-5q0 -20 10.5 -33.5t27 -21.5t35 -14t36.5 -10q63 -18 130 -36t121 -48.5t88 -84 t34 -141.5q0 -66 -16.5 -125t-53.5 -104t-98.5 -72.5t-153.5 -27.5q-106 0 -209.5 19t-208.5 42v215q113 -23 193 -34t160 -11q23 0 48 4t45.5 13.5t34 26.5t13.5 46q0 12 -9 28.5t-44 26.5q-72 20 -145.5 36t-141.5 48q-66 33 -109 91.5t-43 166.5q0 59 8.5 105.5t33 83.5 t68.5 67.5t118 59.5q53 16 82.5 27.5t42.5 19.5q14 8 16 14q0 20 -16.5 32.5t-39 19t-46 8.5t-39.5 2h-117q-49 0 -76.5 -6.5t-40 -21.5t-15.5 -39.5t-3 -61.5v-1166h-258v820h-146z" />
<glyph unicode="&#xe0;" d="M111 291q0 127 81.5 212t256.5 101l303 27v33q0 18 -3.5 34.5t-17.5 28.5t-41.5 19.5t-77.5 7.5q-23 0 -71.5 -4.5t-112 -11.5t-131.5 -15t-127 -16l-12 211q57 12 129.5 24t144.5 21.5t134.5 15.5t97.5 6q188 0 266 -93t78 -274v-618h-183l-28 55q-53 -37 -120 -54 t-110 -17h-116q-72 0 -134.5 19.5t-108.5 58t-71.5 96t-25.5 133.5zM170 1278l324 76l342 -314l-234 -39zM367 293q2 -18 7 -33.5t18.5 -25t40 -14.5t69.5 -5h53q109 0 152 46t45 145l-252 -25q-47 -4 -73 -12.5t-38 -18.5t-16 -24.5t-6 -32.5z" />
<glyph unicode="&#xe1;" d="M111 291q0 127 81.5 212t256.5 101l303 27v33q0 18 -3.5 34.5t-17.5 28.5t-41.5 19.5t-77.5 7.5q-23 0 -71.5 -4.5t-112 -11.5t-131.5 -15t-127 -16l-12 211q57 12 129.5 24t144.5 21.5t134.5 15.5t97.5 6q188 0 266 -93t78 -274v-618h-183l-28 55q-53 -37 -120 -54 t-110 -17h-116q-72 0 -134.5 19.5t-108.5 58t-71.5 96t-25.5 133.5zM274 1040l342 314l324 -76l-432 -277zM367 293q2 -18 7 -33.5t18.5 -25t40 -14.5t69.5 -5h53q109 0 152 46t45 145l-252 -25q-47 -4 -73 -12.5t-38 -18.5t-16 -24.5t-6 -32.5z" />
<glyph unicode="&#xe2;" d="M111 291q0 127 81.5 212t256.5 101l303 27v33q0 18 -3.5 34.5t-17.5 28.5t-41.5 19.5t-77.5 7.5q-23 0 -71.5 -4.5t-112 -11.5t-131.5 -15t-127 -16l-12 211q57 12 129.5 24t144.5 21.5t134.5 15.5t97.5 6q188 0 266 -93t78 -274v-618h-183l-28 55q-53 -37 -120 -54 t-110 -17h-116q-72 0 -134.5 19.5t-108.5 58t-71.5 96t-25.5 133.5zM154 1040l432 398l430 -398l-234 -39l-196 127l-199 -127zM367 293q2 -18 7 -33.5t18.5 -25t40 -14.5t69.5 -5h53q109 0 152 46t45 145l-252 -25q-47 -4 -73 -12.5t-38 -18.5t-16 -24.5t-6 -32.5z" />
<glyph unicode="&#xe3;" d="M111 291q0 127 81.5 212t256.5 101l303 27v33q0 18 -3.5 34.5t-17.5 28.5t-41.5 19.5t-77.5 7.5q-23 0 -71.5 -4.5t-112 -11.5t-131.5 -15t-127 -16l-12 211q57 12 129.5 24t144.5 21.5t134.5 15.5t97.5 6q188 0 266 -93t78 -274v-618h-183l-28 55q-53 -37 -120 -54 t-110 -17h-116q-72 0 -134.5 19.5t-108.5 58t-71.5 96t-25.5 133.5zM113 1036q39 55 76.5 106.5t79.5 90.5t90.5 61.5t107.5 22.5q31 0 51.5 -6t35.5 -17.5t28.5 -27t31.5 -35.5q20 -20 52 -21q8 0 21 3.5t29.5 14.5t37 33.5t45.5 59.5l219 -39q-35 -53 -73 -103.5t-81 -90 t-92 -64.5t-102 -25q-31 0 -54.5 6.5t-43 17.5t-38 26.5t-40.5 33.5q-4 4 -11.5 9.5t-15.5 5.5q-20 0 -39.5 -11.5t-37 -27t-34 -32.5t-28.5 -30zM367 293q2 -18 7 -33.5t18.5 -25t40 -14.5t69.5 -5h53q109 0 152 46t45 145l-252 -25q-47 -4 -73 -12.5t-38 -18.5t-16 -24.5 t-6 -32.5z" />
<glyph unicode="&#xe4;" d="M111 291q0 127 81.5 212t256.5 101l303 27v33q0 18 -3.5 34.5t-17.5 28.5t-41.5 19.5t-77.5 7.5q-23 0 -71.5 -4.5t-112 -11.5t-131.5 -15t-127 -16l-12 211q57 12 129.5 24t144.5 21.5t134.5 15.5t97.5 6q188 0 266 -93t78 -274v-618h-183l-28 55q-53 -37 -120 -54 t-110 -17h-116q-72 0 -134.5 19.5t-108.5 58t-71.5 96t-25.5 133.5zM201 1171q0 59 42 101.5t101 42.5q61 0 104.5 -41t43.5 -100t-40 -104.5t-104 -45.5q-63 0 -105 43t-42 104zM367 293q2 -18 7 -33.5t18.5 -25t40 -14.5t69.5 -5h53q109 0 152 46t45 145l-252 -25 q-47 -4 -73 -12.5t-38 -18.5t-16 -24.5t-6 -32.5zM618 1171q0 59 43.5 101.5t102.5 42.5t102 -41t43 -100t-39 -104.5t-104 -45.5q-61 0 -104.5 43t-43.5 104z" />
<glyph unicode="&#xe5;" d="M111 291q0 127 81.5 212t256.5 101l303 27v33q0 18 -3.5 34.5t-17.5 28.5t-41.5 19.5t-77.5 7.5q-23 0 -71.5 -4.5t-112 -11.5t-131.5 -15t-127 -16l-12 211q57 12 129.5 24t144.5 21.5t134.5 15.5t97.5 6q188 0 266 -93t78 -274v-618h-183l-28 55q-53 -37 -120 -54 t-110 -17h-116q-72 0 -134.5 19.5t-108.5 58t-71.5 96t-25.5 133.5zM322 1268q0 51 19 96t53 79t79 53.5t96 19.5t97.5 -19.5t81 -53.5t54 -78t19.5 -95q0 -53 -18.5 -99.5t-51 -82t-77.5 -56t-99 -20.5q-53 0 -100 20.5t-81 55t-53 80.5t-19 100zM367 293q2 -18 7 -33.5 t18.5 -25t40 -14.5t69.5 -5h53q109 0 152 46t45 145l-252 -25q-47 -4 -73 -12.5t-38 -18.5t-16 -24.5t-6 -32.5zM520 1266q0 -23 15.5 -38.5t37.5 -15.5q20 0 35 14.5t15 39.5q0 20 -14.5 34.5t-37.5 14.5t-37 -14.5t-14 -34.5z" />
<glyph unicode="&#xe6;" horiz-adv-x="1736" d="M111 295q0 131 82.5 212t255.5 97l301 27v33q0 18 -3.5 34.5t-17.5 28.5t-40.5 19.5t-76.5 7.5q-23 0 -71.5 -4.5t-112 -11.5t-131.5 -15t-127 -16l-12 211q57 12 129.5 24t144.5 21.5t134.5 15.5t97.5 6q66 0 120 -11t95 -38q41 27 95 38t120 11h215q74 0 136 -19.5 t108 -57.5t72 -96t26 -136q0 -74 -26 -129t-72 -94t-108.5 -60.5t-133.5 -25.5q-111 -8 -186.5 -12.5t-114.5 -6.5q0 -39 3 -64.5t16 -41t41 -21.5t77 -6q23 0 72 4t112.5 11.5t131 15.5t126.5 16l13 -211q-57 -12 -130 -24.5t-145 -21.5t-134.5 -15t-96.5 -6 q-92 0 -159 22.5t-110 73.5q-29 -23 -62.5 -40t-69.5 -29.5t-69.5 -19.5t-58.5 -7h-116q-150 0 -245 78.5t-95 232.5zM367 293q2 -18 7 -33.5t18.5 -25t40 -14.5t69.5 -5h51q106 0 152.5 45t46.5 113v33l-244 -23q-49 -4 -75.5 -12.5t-41 -19.5t-18.5 -25.5t-6 -32.5z M1010 571l243 27q49 6 78 12t42 15.5t16.5 22t3.5 28.5q0 18 -3.5 32.5t-17.5 24.5t-40.5 15.5t-74.5 5.5h-112q-51 0 -79 -6.5t-40 -22.5t-14 -44t-2 -71v-39z" />
<glyph unicode="&#xe7;" horiz-adv-x="1038" d="M98 4q39 0 79 -7t74 -16.5t59.5 -16.5t35.5 -7q29 0 47 14q8 6 15 15q-154 16 -218.5 108t-64.5 256v277q0 178 78 268t266 90h213q123 0 202 -46t126 -163l-224 -82q-16 39 -38.5 49.5t-61.5 10.5h-166q-51 0 -78.5 -6.5t-41 -22.5t-15.5 -44t-2 -71v-252q0 -43 2 -70.5 t15.5 -44t41 -22.5t78.5 -6q23 0 73 4t112.5 11.5t131 15.5t128.5 16l12 -211q-61 -12 -118.5 -21.5t-115.5 -19.5q-12 -53 -36.5 -99t-64.5 -81t-97.5 -55.5t-132.5 -20.5q-35 0 -68 6.5t-68 14.5q-29 6 -67.5 11t-110.5 5v213z" />
<glyph unicode="&#xe8;" horiz-adv-x="1075" d="M125 350v268q0 180 78 273.5t266 93.5h213q74 0 136.5 -19.5t108.5 -57.5t72.5 -96t26.5 -136q0 -74 -26.5 -129t-72.5 -94t-107.5 -60.5t-133.5 -25.5q-111 -8 -187.5 -12.5t-115.5 -6.5q0 -39 3 -64.5t16.5 -41t41 -21.5t76.5 -6q23 0 73 4t112.5 11.5t131 15.5 t128.5 16l12 -211q-59 -12 -132 -24.5t-144.5 -21.5t-134 -15t-97.5 -6q-188 0 -266 94t-78 272zM170 1278l324 76l342 -314l-234 -39zM383 571l244 27q49 6 77.5 12t42 15.5t16.5 22t3 28.5q0 18 -3 32.5t-17.5 24.5t-41 15.5t-73.5 5.5h-111q-51 0 -78.5 -6.5t-41 -22.5 t-15.5 -44t-2 -71v-39z" />
<glyph unicode="&#xe9;" horiz-adv-x="1075" d="M125 350v268q0 180 78 273.5t266 93.5h215q74 0 136.5 -19.5t108.5 -57.5t71.5 -96t25.5 -136q0 -74 -25.5 -129t-71.5 -94t-108.5 -60.5t-134.5 -25.5q-111 -8 -186.5 -12.5t-114.5 -6.5q0 -39 3 -64.5t16.5 -41t41 -21.5t76.5 -6q23 0 72 4t112.5 11.5t131 15.5 t127.5 16l12 -211q-57 -12 -130 -24.5t-144.5 -21.5t-134 -15t-97.5 -6q-188 0 -267 94t-79 272zM274 1040l344 314l324 -76l-432 -277zM385 571l244 27q49 6 77.5 12t42 15.5t16.5 22t3 28.5q0 18 -4 32.5t-17.5 24.5t-41 15.5t-72.5 5.5h-113q-51 0 -78.5 -6.5t-40 -22.5 t-14.5 -44t-2 -71v-39z" />
<glyph unicode="&#xea;" horiz-adv-x="1075" d="M125 350v268q0 180 78 273.5t266 93.5h213q74 0 136.5 -19.5t108.5 -57.5t72.5 -96t26.5 -136q0 -74 -26.5 -129t-72.5 -94t-107.5 -60.5t-133.5 -25.5q-111 -8 -187.5 -12.5t-115.5 -6.5q0 -39 3 -64.5t16.5 -41t41 -21.5t76.5 -6q23 0 73 4t112.5 11.5t131 15.5 t128.5 16l12 -211q-59 -12 -132 -24.5t-144.5 -21.5t-134 -15t-97.5 -6q-188 0 -266 94t-78 272zM154 1040l432 398l430 -398l-234 -39l-196 127l-199 -127zM383 571l244 27q49 6 77.5 12t42 15.5t16.5 22t3 28.5q0 18 -3 32.5t-17.5 24.5t-41 15.5t-73.5 5.5h-111 q-51 0 -78.5 -6.5t-41 -22.5t-15.5 -44t-2 -71v-39z" />
<glyph unicode="&#xeb;" horiz-adv-x="1075" d="M125 350v268q0 180 78 273.5t266 93.5h213q74 0 136.5 -19.5t108.5 -57.5t72.5 -96t26.5 -136q0 -74 -26.5 -129t-72.5 -94t-107.5 -60.5t-133.5 -25.5q-111 -8 -187.5 -12.5t-115.5 -6.5q0 -39 3 -64.5t16.5 -41t41 -21.5t76.5 -6q23 0 73 4t112.5 11.5t131 15.5 t128.5 16l12 -211q-59 -12 -132 -24.5t-144.5 -21.5t-134 -15t-97.5 -6q-188 0 -266 94t-78 272zM201 1171q0 59 42 101.5t101 42.5q61 0 104.5 -41t43.5 -100t-40 -104.5t-104 -45.5q-63 0 -105 43t-42 104zM383 571l244 27q49 6 77.5 12t42 15.5t16.5 22t3 28.5t-3 30.5 t-17.5 24.5t-41 16.5t-73.5 6.5h-111q-51 0 -78.5 -6.5t-41 -22.5t-15.5 -44t-2 -71v-39zM618 1171q0 59 43.5 101.5t102.5 42.5t102 -41t43 -100t-39 -104.5t-104 -45.5q-61 0 -104.5 43t-43.5 104z" />
<glyph unicode="&#xec;" horiz-adv-x="485" d="M-131 1278l324 76l342 -314l-234 -39zM162 -2v977h258v-977h-258z" />
<glyph unicode="&#xed;" horiz-adv-x="485" d="M33 1040l342 314l323 -76l-432 -277zM162 -2v977h258v-977h-258z" />
<glyph unicode="&#xee;" horiz-adv-x="485" d="M-147 1040l430 398l432 -398l-234 -39l-198 127l-197 -127zM162 -2v977h258v-977h-258z" />
<glyph unicode="&#xef;" horiz-adv-x="485" d="M-66 1171q0 59 42 101.5t102 42.5q61 0 104 -41t43 -100t-40 -104.5t-103 -45.5t-105.5 43t-42.5 104zM162 -2v977h258v-977h-258zM352 1171q0 59 43 101.5t103 42.5q59 0 102 -41t43 -100t-40 -104.5t-103 -45.5q-61 0 -104.5 43t-43.5 104z" />
<glyph unicode="&#xf0;" horiz-adv-x="1067" d="M117 352v269q0 180 77.5 273t266.5 93q74 0 146.5 -14.5t144.5 -30.5q-4 12 -10.5 33.5t-10.5 38.5h-164l-110 221h172q-10 16 -29.5 39.5t-67.5 77.5h283q10 -10 36 -39t56 -78h166l111 -221h-183q10 -29 13.5 -67t3.5 -54v-844q-57 -12 -138 -23.5t-163 -20.5 t-151.5 -14t-104.5 -5q-188 0 -266 93t-78 273zM375 360q0 -43 2 -70.5t15.5 -44t41 -22.5t78.5 -6q37 0 105.5 5t142.5 16v485q-59 10 -124 21.5t-124 11.5q-51 0 -78.5 -6.5t-41 -22.5t-15.5 -44t-2 -71v-252z" />
<glyph unicode="&#xf1;" horiz-adv-x="1132" d="M113 1036q37 55 74.5 105.5t79.5 89.5t91.5 62.5t108.5 23.5q31 0 51.5 -6t35.5 -17.5t28.5 -27t31.5 -35.5q20 -20 52 -21q8 0 21 3.5t29.5 14.5t37 33.5t45.5 59.5l219 -39q-35 -53 -73 -103.5t-81 -90t-92 -64.5t-102 -25q-31 0 -54.5 6.5t-43 17.5t-38 26.5 t-40.5 33.5q-4 4 -11.5 9.5t-15.5 5.5q-20 0 -39.5 -11.5t-37 -27t-34 -32.5t-28.5 -30zM162 -2v975h196l37 -41q80 18 160 36.5t164 18.5q188 0 266 -94t78 -272v-623h-258v614q0 43 -2 71t-15.5 44t-41 22.5t-78.5 6.5q-59 0 -124 -12.5t-124 -22.5v-723h-258z" />
<glyph unicode="&#xf2;" horiz-adv-x="1093" d="M125 350v268q0 180 78 273.5t266 93.5h213q188 0 266 -93t78 -274v-268q0 -178 -78 -272t-266 -94h-213q-188 0 -266 94t-78 272zM170 1278l324 76l342 -314l-234 -39zM383 358q0 -43 2 -70.5t15.5 -44t41 -22.5t78.5 -6h111q51 0 78.5 6t41 22.5t16.5 44t3 70.5v252 q0 43 -3 71t-16.5 44t-41 22.5t-78.5 6.5h-111q-51 0 -78.5 -6.5t-41 -22.5t-15.5 -44t-2 -71v-252z" />
<glyph unicode="&#xf3;" horiz-adv-x="1093" d="M125 350v268q0 180 78 273.5t266 93.5h215q188 0 265 -93t77 -274v-268q0 -178 -77 -272t-265 -94h-215q-188 0 -266 94t-78 272zM274 1040l344 314l324 -76l-432 -277zM383 358q0 -43 2 -70.5t15.5 -44t41 -22.5t78.5 -6h113q51 0 78.5 6t41 22.5t15.5 44t2 70.5v252 q0 43 -2 71t-15.5 44t-41 22.5t-78.5 6.5h-113q-51 0 -78.5 -6.5t-41 -22.5t-15.5 -44t-2 -71v-252z" />
<glyph unicode="&#xf4;" horiz-adv-x="1093" d="M125 350v268q0 180 78 273.5t266 93.5h213q188 0 266 -93t78 -274v-268q0 -178 -78 -272t-266 -94h-213q-188 0 -266 94t-78 272zM154 1040l432 398l430 -398l-234 -39l-196 127l-199 -127zM383 358q0 -43 2 -70.5t15.5 -44t41 -22.5t78.5 -6h111q51 0 78.5 6t41 22.5 t16.5 44t3 70.5v252q0 43 -3 71t-16.5 44t-41 22.5t-78.5 6.5h-111q-51 0 -78.5 -6.5t-41 -22.5t-15.5 -44t-2 -71v-252z" />
<glyph unicode="&#xf5;" horiz-adv-x="1093" d="M113 1036q33 45 67.5 95.5t76.5 91.5t93 67.5t117 26.5q31 0 51.5 -6t35.5 -17.5t28.5 -27t31.5 -35.5q20 -20 52 -21q8 0 21 3.5t29.5 14.5t37 33.5t45.5 59.5l219 -39q-35 -53 -73 -103.5t-81 -90t-92 -64.5t-102 -25q-31 0 -54.5 6.5t-43 17.5t-38 26.5t-40.5 33.5 q-4 4 -11.5 9.5t-15.5 5.5q-20 0 -39.5 -11.5t-37 -27t-34 -32.5t-28.5 -30zM125 350v268q0 180 78 273.5t266 93.5h213q188 0 266 -93t78 -274v-268q0 -178 -78 -272t-266 -94h-213q-188 0 -266 94t-78 272zM383 358q0 -43 2 -70.5t15.5 -44t41 -22.5t78.5 -6h111 q51 0 78.5 6t41 22.5t16.5 44t3 70.5v252q0 43 -3 71t-16.5 44t-41 22.5t-78.5 6.5h-111q-51 0 -78.5 -6.5t-41 -22.5t-15.5 -44t-2 -71v-252z" />
<glyph unicode="&#xf6;" horiz-adv-x="1093" d="M125 350v268q0 180 78 273.5t266 93.5h213q188 0 266 -93t78 -274v-268q0 -178 -78 -272t-266 -94h-213q-188 0 -266 94t-78 272zM201 1171q0 59 42 101.5t101 42.5q61 0 104.5 -41t43.5 -100t-40 -104.5t-104 -45.5q-63 0 -105 43t-42 104zM383 358q0 -43 2 -70.5 t15.5 -44t41 -22.5t78.5 -6h111q51 0 78.5 6t41 22.5t16.5 44t3 70.5v252q0 43 -3 71t-16.5 44t-41 22.5t-78.5 6.5h-111q-51 0 -78.5 -6.5t-41 -22.5t-15.5 -44t-2 -71v-252zM618 1171q0 59 43.5 101.5t102.5 42.5t102 -41t43 -100t-39 -104.5t-104 -45.5q-61 0 -104.5 43 t-43.5 104z" />
<glyph unicode="&#xf7;" horiz-adv-x="1161" d="M88 588v233h1038v-233h-1038zM467 190v289h283v-289h-283zM467 938v289h283v-289h-283z" />
<glyph unicode="&#xf8;" horiz-adv-x="1093" d="M125 350v268q0 180 78 273.5t266 93.5h184l56 131h266l-78 -180q72 -45 100.5 -126t28.5 -192v-268q0 -178 -78 -272t-266 -94h-203l-57 -129h-264l82 188q-66 47 -90.5 126t-24.5 181zM383 369l168 385h-31q-51 0 -78.5 -6.5t-41 -22.5t-15.5 -44t-2 -71v-241zM580 215 h51q51 0 78.5 6t41 22.5t16.5 44t3 70.5l-2 287z" />
<glyph unicode="&#xf9;" horiz-adv-x="1126" d="M139 354v621h258v-613q0 -43 2 -70.5t15.5 -44t41 -22.5t79.5 -6q59 0 123.5 11.5t123.5 21.5v723h258v-975h-196l-37 41q-80 -16 -160 -34.5t-164 -18.5q-188 0 -266 93t-78 273zM170 1278l324 76l342 -314l-234 -39z" />
<glyph unicode="&#xfa;" horiz-adv-x="1126" d="M139 354v621h258v-613q0 -43 2 -70.5t15.5 -44t41 -22.5t79.5 -6q59 0 123.5 11.5t123.5 21.5v723h258v-975h-196l-37 41q-80 -16 -160 -34.5t-164 -18.5q-188 0 -266 93t-78 273zM336 1040l342 314l323 -76l-432 -277z" />
<glyph unicode="&#xfb;" horiz-adv-x="1126" d="M139 354v621h258v-613q0 -43 2 -70.5t15.5 -44t41 -22.5t79.5 -6q59 0 123.5 11.5t123.5 21.5v723h258v-975h-196l-37 41q-80 -16 -160 -34.5t-164 -18.5q-188 0 -266 93t-78 273zM154 1040l432 398l430 -398l-234 -39l-196 127l-199 -127z" />
<glyph unicode="&#xfc;" horiz-adv-x="1126" d="M139 354v621h258v-613q0 -43 2 -70.5t15.5 -44t41 -22.5t79.5 -6q59 0 123.5 11.5t123.5 21.5v723h258v-975h-196l-37 41q-80 -16 -160 -34.5t-164 -18.5q-188 0 -266 93t-78 273zM236 1171q0 59 43 101.5t102 42.5t102 -41t43 -100t-40 -104.5t-103 -45.5q-61 0 -104 43 t-43 104zM653 1171q0 59 43 101.5t103 42.5q59 0 102 -41t43 -100t-39 -104.5t-102 -45.5t-106.5 43t-43.5 104z" />
<glyph unicode="&#xfd;" horiz-adv-x="1097" d="M139 -111q57 -10 126 -22t139.5 -23.5t135 -19.5t111.5 -8q45 0 72 5t41 14t17 23.5t3 30.5v144q-29 -6 -69.5 -14.5t-83.5 -14.5t-82 -11t-64 -5q-188 0 -266 93t-78 273v621h258v-613q0 -43 2 -70.5t15.5 -44t41 -22.5t79.5 -6q14 0 45.5 4t68.5 9.5t73 10.5t60 9v723 h258v-1077q0 -313 -340 -314q-37 0 -107.5 10.5t-153.5 25.5t-163.5 31.5t-138.5 29.5v208zM305 1042l342 314l324 -76l-432 -276z" />
<glyph unicode="&#xfe;" horiz-adv-x="1146" d="M162 -436v1755h258v-379q74 16 148.5 31.5t150.5 15.5q188 0 266 -93t78 -273v-269q0 -180 -78 -273t-266 -93q-76 0 -150.5 16t-148.5 33v-471h-258zM420 250q59 -10 123.5 -21.5t124.5 -11.5q51 0 78.5 6t41 22.5t15.5 44t2 70.5v252q0 43 -2 71t-15.5 44t-41 22.5 t-78.5 6.5q-59 0 -124 -11.5t-124 -21.5v-473z" />
<glyph unicode="&#xff;" horiz-adv-x="1097" d="M139 -111q57 -10 126 -22t139.5 -23.5t135 -19.5t111.5 -8q45 0 72 5t41 14t17 23.5t3 30.5v144q-29 -6 -69.5 -14.5t-83.5 -14.5t-82 -11t-64 -5q-188 0 -266 93t-78 273v621h258v-613q0 -43 2 -70.5t15.5 -44t41 -22.5t79.5 -6q14 0 45.5 4t68.5 9.5t73 10.5t60 9v723 h258v-1077q0 -313 -340 -314q-37 0 -107.5 10.5t-153.5 25.5t-163.5 31.5t-138.5 29.5v208zM231 1171q0 59 43 101.5t103 42.5q59 0 102 -41t43 -100t-39 -104.5t-104 -45.5q-61 0 -104.5 43t-43.5 104zM649 1171q0 59 43 101.5t103 42.5q59 0 102 -41t43 -100t-39 -104.5 t-102 -45.5t-106.5 43t-43.5 104z" />
<glyph unicode="&#x152;" horiz-adv-x="1759" d="M139 367v596q0 178 78 272t266 94h320q66 0 119 -12h770v-230h-545v-270h463v-229h-465v-357h547v-231h-1209q-188 0 -266 94t-78 273zM424 375q0 -43 2 -71t15.5 -44t41 -22.5t78.5 -6.5h164q47 0 74.5 6.5t41 17.5t17.5 27.5t4 39.5v686q0 23 -4 39t-17.5 27t-41 17.5 t-74.5 6.5h-164q-51 0 -78.5 -6.5t-41 -22.5t-15.5 -44t-2 -71v-579z" />
<glyph unicode="&#x153;" horiz-adv-x="1757" d="M125 350v268q0 180 78 273.5t266 93.5h213q66 0 121 -11t96 -38q41 27 95.5 38t119.5 11h215q74 0 136.5 -19.5t108.5 -57.5t71.5 -96t25.5 -136q0 -74 -25.5 -129t-71.5 -94t-108.5 -60.5t-134.5 -25.5q-111 -8 -187.5 -12.5t-115.5 -6.5q0 -39 3 -64.5t16.5 -41 t41 -21.5t76.5 -6q23 0 73 4t113.5 11.5t131 15.5t127.5 16l12 -211q-57 -12 -130 -24.5t-144.5 -21.5t-134 -15t-97.5 -6q-135 0 -217 51q-82 -51 -217 -51h-213q-188 0 -266 94t-78 272zM383 358q0 -43 2 -70.5t15.5 -44t41 -22.5t78.5 -6h111q51 0 78.5 6t41 22.5 t16.5 44t3 70.5v252q0 43 -3 71t-16.5 44t-41 22.5t-78.5 6.5h-111q-51 0 -78.5 -6.5t-41 -22.5t-15.5 -44t-2 -71v-252zM1028 571l246 27q49 6 77.5 12t42 15.5t16.5 22t3 28.5q0 18 -4 32.5t-17.5 24.5t-41 15.5t-72.5 5.5h-113q-51 0 -78.5 -6.5t-41 -22.5t-15.5 -44 t-2 -71v-39z" />
<glyph unicode="&#x178;" horiz-adv-x="1224" d="M-8 1317h303l344 -604l340 604h305l-502 -893v-424h-290v424zM274 1503q0 59 43 102.5t103 43.5q59 0 102 -42.5t43 -101.5t-40 -104t-103 -45q-61 0 -104.5 44t-43.5 103zM692 1503q0 59 43 102.5t103 43.5q59 0 102 -42.5t43 -101.5t-39 -104t-102 -45t-106.5 44 t-43.5 103z" />
<glyph unicode="&#x2c6;" horiz-adv-x="1126" d="M154 1040l432 398l430 -398l-234 -39l-196 127l-199 -127z" />
<glyph unicode="&#x2dc;" d="M113 1036q37 55 74.5 105.5t79.5 89.5t91.5 62.5t108.5 23.5q31 0 51.5 -6t35.5 -17.5t28.5 -27t31.5 -35.5q20 -20 52 -21q8 0 21 3.5t29.5 14.5t37 33.5t45.5 59.5l219 -39q-35 -53 -73 -103.5t-81 -90t-92 -64.5t-102 -25q-31 0 -54.5 6.5t-43 17.5t-38 26.5 t-40.5 33.5q-4 4 -11.5 9.5t-15.5 5.5q-20 0 -39.5 -11.5t-37 -27t-34 -32.5t-28.5 -30z" />
<glyph unicode="&#x2000;" horiz-adv-x="903" />
<glyph unicode="&#x2001;" horiz-adv-x="1806" />
<glyph unicode="&#x2002;" horiz-adv-x="903" />
<glyph unicode="&#x2003;" horiz-adv-x="1806" />
<glyph unicode="&#x2004;" horiz-adv-x="602" />
<glyph unicode="&#x2005;" horiz-adv-x="451" />
<glyph unicode="&#x2006;" horiz-adv-x="301" />
<glyph unicode="&#x2007;" horiz-adv-x="301" />
<glyph unicode="&#x2008;" horiz-adv-x="225" />
<glyph unicode="&#x2009;" horiz-adv-x="361" />
<glyph unicode="&#x200a;" horiz-adv-x="100" />
<glyph unicode="&#x2010;" horiz-adv-x="905" d="M88 440v234h797v-234h-797z" />
<glyph unicode="&#x2011;" horiz-adv-x="905" d="M88 440v234h797v-234h-797z" />
<glyph unicode="&#x2012;" horiz-adv-x="905" d="M88 440v234h797v-234h-797z" />
<glyph unicode="&#x2013;" horiz-adv-x="751" d="M88 588v233h651v-233h-651z" />
<glyph unicode="&#x2014;" horiz-adv-x="1161" d="M88 588v233h1038v-233h-1038z" />
<glyph unicode="&#x2018;" horiz-adv-x="366" d="M88 739v254l123 371l170 -55l-55 -279h47v-291h-285z" />
<glyph unicode="&#x2019;" horiz-adv-x="366" d="M82 784l55 281h-45v289h283v-254l-123 -371z" />
<glyph unicode="&#x201a;" horiz-adv-x="366" d="M82 -281l55 281h-45v289h283v-254l-123 -371z" />
<glyph unicode="&#x201c;" horiz-adv-x="661" d="M88 739v254l123 371l170 -55l-55 -279h47v-291h-285zM389 739v254l123 371l168 -55l-53 -279h45v-291h-283z" />
<glyph unicode="&#x201d;" horiz-adv-x="661" d="M82 784l55 281h-45v289h283v-254l-123 -371zM383 784l53 281h-45v289h285v-254l-125 -371z" />
<glyph unicode="&#x201e;" horiz-adv-x="661" d="M82 -281l55 281h-45v289h283v-254l-123 -371zM403 -281l54 281h-45v289h284v-254l-125 -371z" />
<glyph unicode="&#x2022;" horiz-adv-x="858" d="M125 731q0 70 26.5 131.5t72.5 107.5t107.5 72.5t133.5 26.5q70 0 132 -26.5t108.5 -72.5t73 -107.5t26.5 -131.5q0 -72 -26.5 -133t-73 -107.5t-108.5 -73t-132 -26.5q-72 0 -133.5 26.5t-107.5 73t-72.5 107.5t-26.5 133z" />
<glyph unicode="&#x2026;" horiz-adv-x="1384" d="M158 0v291h284v-291h-284zM578 0v291h282v-291h-282zM983 0v291h285v-291h-285z" />
<glyph unicode="&#x202f;" horiz-adv-x="361" />
<glyph unicode="&#x2039;" horiz-adv-x="608" d="M-8 563l600 436l92 -198l-340 -238l340 -244l-92 -200z" />
<glyph unicode="&#x203a;" horiz-adv-x="608" d="M8 801l92 198l600 -436l-600 -444l-90 200l338 244z" />
<glyph unicode="&#x205f;" horiz-adv-x="451" />
<glyph unicode="&#x2122;" horiz-adv-x="1425" d="M18 1149v180h687l223 -455l219 455h192v-774h-211v299l-116 -227h-172l-117 229v-301h-211v594h-92v-594h-211v594h-191z" />
<glyph unicode="&#x25fc;" horiz-adv-x="972" d="M0 0v973h973v-973h-973z" />
<glyph unicode="&#xfb01;" horiz-adv-x="1136" d="M18 758v217h195l-2 33q-10 178 73 270t271 92q72 0 140.5 -10t158.5 -31l-12 -211q-78 10 -128 15.5t-98 5.5q-76 0 -101.5 -11.5t-31.5 -25.5q-8 -14 -11 -39t-3 -47q0 -12 1 -22.5t1 -18.5h567v-977h-260v760h-307v-758h-258v758h-195z" />
<glyph unicode="&#xfb02;" horiz-adv-x="1136" d="M18 758v217h195l-2 33q-10 180 74 271t286 91h52.5t40 -3t46 -9t68.5 -19l-16 -213q-37 4 -57.5 7.5t-31.5 4.5t-15.5 2t-8.5 1q-8 0 -14 -1t-29 -1q-49 0 -76.5 -6.5t-40 -21.5t-15.5 -39.5t-3 -61.5v-35h311l23 375h233v-1352h-260v760h-307v-758h-258v758h-195z" />
</font>
</defs>
</svg>
